<?xml version="1.0" encoding="UTF-8"?>
<svg id="Layer1" xmlns="http://www.w3.org/2000/svg" width="1920" height="1080" version="1.1" viewBox="0 0 1920 1080">
  <!-- Generator: Adobe Illustrator 30.4.0, SVG Export Plug-In . SVG Version: 2.1.4 Build 226)  -->
  <defs>
    <style>
      .st0 {
        stroke: #c7c8ca;
      }

      .st0, .st1, .st2 {
        fill: none;
        stroke-linecap: round;
        stroke-linejoin: round;
      }

      .st0, .st2 {
        stroke-width: 2px;
      }

      .st3 {
        fill: #f0ede6;
      }

      .st3, .st4, .st5 {
        fill-rule: evenodd;
      }

      .st4 {
        fill: #ff5239;
      }

      .st5 {
        fill: #c4bfbb;
      }

      .st1 {
        stroke-width: 2px;
      }

      .st1, .st2 {
        stroke: #ff5239;
      }

      .st2 {
        stroke-dasharray: 1.21 .61;
      }
    </style>
  </defs>
  <g id="ARC">
    <path class="st0" d="M264.67,830.52c1.74,1.12,3.89,1.41,5.86.79"/>
  </g>
  <g id="LINE">
    <line class="st0" x1="944.39" y1="636.78" x2="270.53" y2="831.3"/>
  </g>
  <g id="LINE1" data-name="LINE">
    <line class="st0" x1="264.67" y1="830.52" x2="90.17" y2="679.4"/>
  </g>
  <g id="ARC1" data-name="ARC">
    <path class="st0" d="M89.59,678.32c.02.43.23.82.57,1.07"/>
  </g>
  <g id="LWPOLYLINE">
    <polyline class="st0" points="946.54 634.92 946.53 635.06 946.39 635.47 946.09 635.87 945.65 636.23 945.07 636.53 944.39 636.78"/>
  </g>
  <g id="HATCH">
    <path class="st3" d="M944.39,636.78l.68-.24.58-.31.44-.36.3-.39.14-.41v-.14s-1.47-3.24-1.47-3.24l-174.5-151.12-4-.88L92.69,674.2l-3.1,4.12.57,1.07,174.5,151.12,5.86.79,673.86-194.53M412.81,776.6l1.77.2,1.57.45,1.23.66.79.82.27.9-.27.9-.79.82-1.23.66-1.57.45-1.77.2-1.81-.07-1.69-.33-1.42-.56-1.02-.75-.53-.87v-.91l.53-.87,1.02-.75,1.42-.56,1.69-.33,1.81-.07M395.41,622.83l-1.77.2-1.81-.07-1.69-.33-1.42-.56-1.02-.75-.53-.87v-.91l.53-.87,1.02-.75,1.42-.56,1.69-.33,1.81-.07,1.77.2,1.57.45,1.23.66.79.82.27.9-.27.9-.79.82-1.23.66-1.57.45M530.22,743.42l.53-.87,1.02-.75,1.42-.56,1.69-.33,1.81-.07,1.77.2,1.57.45,1.23.66.79.82.27.9-.27.9-.79.82-1.23.66-1.57.45-1.77.2-1.81-.07-1.69-.33-1.42-.56-1.02-.75-.53-.87v-.91M275.13,656.65l-.79.82-1.23.66-1.57.45-1.77.2-1.81-.07-1.69-.33-1.42-.56-1.02-.75-.53-.87v-.91l.53-.87,1.02-.75,1.42-.56,1.69-.33,1.81-.07,1.77.2,1.57.45,1.23.66.79.82.27.9-.27.9M511.59,585.56l-.53-.87v-.91l.53-.87,1.02-.75,1.42-.56,1.69-.33,1.81-.07,1.77.2,1.57.45,1.23.66.79.82.27.9-.27.9-.79.82-1.23.66-1.57.45-1.77.2-1.81-.07-1.69-.33-1.42-.56-1.02-.75M294.29,814.49l.27.9-.27.9-.79.82-1.23.66-1.57.45-1.77.2-1.81-.07-1.69-.33-1.42-.56-1.02-.75-.53-.87v-.91l.53-.87,1.02-.75,1.42-.56,1.69-.33,1.81-.07,1.77.2,1.57.45,1.23.66.79.82M222.98,753v.91l-.53.87-1.02.75-1.42.56-1.69.33-1.81.07-1.77-.2-1.57-.45-1.23-.66-.79-.82-.27-.9.27-.9.79-.82,1.23-.66,1.57-.45,1.77-.2,1.81.07,1.69.33,1.42.56,1.02.75.53.87M654.09,707.66l.53-.87,1.02-.75,1.42-.56,1.69-.33,1.81-.07,1.77.2,1.57.45,1.23.66.79.82.27.9-.27.9-.79.82-1.23.66-1.57.45-1.77.2-1.81-.07-1.69-.33-1.42-.56-1.02-.75-.53-.87v-.91M151.53,691.51l-.27.9-.79.82-1.23.66-1.57.45-1.77.2-1.81-.07-1.69-.33-1.42-.56-1.02-.75-.53-.87v-.91l.53-.87,1.02-.75,1.42-.56,1.69-.33,1.81-.07,1.77.2,1.57.45,1.23.66.79.82.27.9M635.46,549.8l-.53-.87v-.91l.53-.87,1.02-.75,1.42-.56,1.69-.33,1.81-.07,1.77.2,1.57.45,1.23.66.79.82.27.9-.27.9-.79.82-1.23.66-1.57.45-1.77.2-1.81-.07-1.69-.33-1.42-.56-1.02-.75M777.96,672.8v-.91l.53-.87,1.02-.75,1.42-.56,1.69-.33,1.81-.07,1.77.2,1.57.45,1.23.66.79.82.27.9-.27.9-.79.82-1.23.66-1.57.45-1.77.2-1.81-.07-1.69-.33-1.42-.56-1.02-.75-.53-.87M758.8,513.17v-.91l.53-.87,1.02-.75,1.42-.56,1.69-.33,1.81-.07,1.77.2,1.57.45,1.23.66.79.82.27.9-.27.9-.79.82-1.23.66-1.57.45-1.77.2-1.81-.07-1.69-.33-1.42-.56-1.02-.75-.53-.87M830.31,575.11v-.91l.53-.87,1.02-.75,1.42-.56,1.69-.33,1.81-.07,1.77.2,1.57.45,1.23.66.79.82.27.9-.27.9-.79.82-1.23.66-1.57.45-1.77.2-1.81-.07-1.69-.33-1.42-.56-1.02-.75-.53-.87M901.83,637.05v-.91l.53-.87,1.02-.75,1.42-.56,1.69-.33,1.81-.07,1.77.2,1.57.45,1.23.66.79.82.27.9-.27.9-.79.82-1.23.66-1.57.45-1.77.2-1.81-.07-1.69-.33-1.42-.56-1.02-.75-.53-.87Z"/>
  </g>
  <g id="HATCH1" data-name="HATCH">
    <path class="st5" d="M89.59,678.32c.02.43.23.82.57,1.07l174.5,151.12c1.74,1.12,3.89,1.41,5.86.79l673.86-194.53.68-.24.58-.31.44-.36.3-.39.14-.41v-.14s0,12.39,0,12.39l-.21,2.17-.67,2.18-1.15,2.08-1.43,1.72-1.8,1.53-2.17,1.31-2.84,1.16-.65.2-663.93,191.66c-1.72.57-3.62.15-4.95-1.09l-171.36-148.4c-3.47-2.68-5.58-6.74-5.77-11.12v-12.39Z"/>
  </g>
  <g id="ARC2" data-name="ARC">
    <path class="st1" d="M266.73,850.23c1.33,1.24,3.22,1.66,4.95,1.09"/>
  </g>
  <g id="LINE2" data-name="LINE">
    <line class="st1" x1="271.67" y1="851.32" x2="935.61" y2="659.66"/>
  </g>
  <g id="LINE3" data-name="LINE">
    <line class="st1" x1="95.37" y1="701.83" x2="266.73" y2="850.23"/>
  </g>
  <g id="ARC3" data-name="ARC">
    <path class="st1" d="M89.59,690.71c.2,4.37,2.31,8.44,5.77,11.12"/>
  </g>
  <g id="ARC4" data-name="ARC">
    <path class="st1" d="M92.69,674.2c-1.84.53-3.1,2.21-3.1,4.12"/>
  </g>
  <g id="LINE4" data-name="LINE">
    <line class="st1" x1="766.55" y1="479.67" x2="92.69" y2="674.2"/>
  </g>
  <g id="LINE5" data-name="LINE">
    <line class="st1" x1="89.59" y1="678.32" x2="89.59" y2="690.71"/>
  </g>
  <g id="ARC5" data-name="ARC">
    <path class="st1" d="M946.54,634.92c0-1.25-.54-2.43-1.48-3.24"/>
  </g>
  <g id="LINE6" data-name="LINE">
    <line class="st1" x1="946.54" y1="647.31" x2="946.54" y2="634.92"/>
  </g>
  <g id="LINE7" data-name="LINE">
    <line class="st1" x1="945.05" y1="631.68" x2="770.55" y2="480.55"/>
  </g>
  <g id="LWPOLYLINE1" data-name="LWPOLYLINE">
    <polyline class="st1" points="935.61 659.66 936.26 659.46 939.1 658.3 941.27 656.98 943.08 655.45 944.51 653.73 945.66 651.65 946.33 649.47 946.54 647.31"/>
  </g>
  <g id="ARC6" data-name="ARC">
    <path class="st1" d="M770.55,480.55c-1.1-.95-2.6-1.28-4-.88"/>
  </g>
  <g id="LWPOLYLINE2" data-name="LWPOLYLINE">
    <polyline class="st2" points="904.8 633.96 903.39 634.53 902.37 635.27 901.83 636.14 901.83 637.05 902.37 637.91 903.39 638.66 904.8 639.22 906.49 639.56 908.3 639.62 910.06 639.42 911.63 638.97 912.86 638.3 913.65 637.49 913.92 636.59 913.65 635.7 912.86 634.88 911.63 634.22 910.06 633.76 908.3 633.56 906.49 633.63 904.8 633.96"/>
  </g>
  <g id="LWPOLYLINE3" data-name="LWPOLYLINE">
    <polyline class="st2" points="761.77 510.09 760.35 510.65 759.33 511.4 758.8 512.27 758.8 513.17 759.33 514.04 760.35 514.79 761.77 515.35 763.45 515.68 765.26 515.75 767.03 515.55 768.6 515.1 769.83 514.43 770.62 513.62 770.89 512.72 770.62 511.83 769.83 511.01 768.6 510.34 767.03 509.89 765.26 509.69 763.45 509.76 761.77 510.09"/>
  </g>
  <g id="LWPOLYLINE4" data-name="LWPOLYLINE">
    <polyline class="st2" points="780.93 669.72 779.51 670.28 778.49 671.03 777.96 671.9 777.96 672.8 778.49 673.67 779.51 674.42 780.93 674.98 782.62 675.31 784.42 675.38 786.19 675.18 787.76 674.73 788.99 674.06 789.78 673.25 790.05 672.35 789.78 671.46 788.99 670.64 787.76 669.97 786.19 669.52 784.42 669.32 782.62 669.39 780.93 669.72"/>
  </g>
  <g id="LWPOLYLINE5" data-name="LWPOLYLINE">
    <polyline class="st2" points="637.9 545.85 636.48 546.41 635.46 547.16 634.93 548.03 634.93 548.93 635.46 549.8 636.48 550.55 637.9 551.11 639.58 551.44 641.39 551.51 643.16 551.31 644.73 550.86 645.96 550.19 646.75 549.38 647.02 548.48 646.75 547.58 645.96 546.77 644.73 546.1 643.16 545.65 641.39 545.45 639.58 545.52 637.9 545.85"/>
  </g>
  <g id="LWPOLYLINE6" data-name="LWPOLYLINE">
    <polyline class="st2" points="657.06 705.48 655.64 706.04 654.62 706.79 654.09 707.66 654.09 708.56 654.62 709.43 655.64 710.18 657.06 710.74 658.75 711.07 660.55 711.14 662.32 710.94 663.89 710.49 665.12 709.82 665.91 709.01 666.18 708.11 665.91 707.21 665.12 706.4 663.89 705.73 662.32 705.28 660.55 705.08 658.75 705.15 657.06 705.48"/>
  </g>
  <g id="LWPOLYLINE7" data-name="LWPOLYLINE">
    <polyline class="st2" points="514.03 581.61 512.61 582.17 511.59 582.92 511.05 583.79 511.05 584.69 511.59 585.56 512.61 586.31 514.03 586.87 515.71 587.2 517.52 587.27 519.29 587.07 520.85 586.61 522.09 585.95 522.87 585.13 523.14 584.24 522.87 583.34 522.09 582.53 520.85 581.86 519.29 581.41 517.52 581.21 515.71 581.27 514.03 581.61"/>
  </g>
  <g id="LWPOLYLINE8" data-name="LWPOLYLINE">
    <polyline class="st2" points="533.19 741.24 531.77 741.8 530.75 742.55 530.22 743.42 530.22 744.32 530.75 745.19 531.77 745.94 533.19 746.5 534.87 746.83 536.68 746.9 538.45 746.7 540.02 746.24 541.25 745.58 542.04 744.76 542.31 743.87 542.04 742.97 541.25 742.16 540.02 741.49 538.45 741.04 536.68 740.84 534.87 740.91 533.19 741.24"/>
  </g>
  <g id="LWPOLYLINE9" data-name="LWPOLYLINE">
    <polyline class="st2" points="390.15 617.36 388.74 617.93 387.72 618.68 387.18 619.54 387.18 620.45 387.72 621.32 388.74 622.06 390.15 622.63 391.84 622.96 393.65 623.03 395.41 622.83 396.98 622.37 398.22 621.71 399 620.89 399.27 620 399 619.1 398.22 618.28 396.98 617.62 395.41 617.17 393.65 616.97 391.84 617.03 390.15 617.36"/>
  </g>
  <g id="LWPOLYLINE10" data-name="LWPOLYLINE">
    <polyline class="st2" points="409.32 776.99 407.9 777.56 406.88 778.31 406.35 779.17 406.35 780.08 406.88 780.95 407.9 781.69 409.32 782.26 411 782.59 412.81 782.66 414.58 782.46 416.15 782 417.38 781.34 418.17 780.52 418.44 779.63 418.17 778.73 417.38 777.91 416.15 777.25 414.58 776.8 412.81 776.6 411 776.66 409.32 776.99"/>
  </g>
  <g id="LWPOLYLINE11" data-name="LWPOLYLINE">
    <polyline class="st2" points="266.28 653.12 264.87 653.69 263.84 654.44 263.31 655.3 263.31 656.21 263.84 657.07 264.87 657.82 266.28 658.39 267.97 658.72 269.78 658.79 271.54 658.58 273.11 658.13 274.34 657.47 275.13 656.65 275.4 655.76 275.13 654.86 274.34 654.04 273.11 653.38 271.54 652.93 269.78 652.72 267.97 652.79 266.28 653.12"/>
  </g>
  <g id="LWPOLYLINE12" data-name="LWPOLYLINE">
    <polyline class="st2" points="220.01 756.08 221.42 755.52 222.44 754.77 222.98 753.9 222.98 753 222.44 752.13 221.42 751.38 220.01 750.82 218.32 750.49 216.51 750.42 214.75 750.62 213.18 751.07 211.94 751.74 211.16 752.55 210.89 753.45 211.16 754.35 211.94 755.16 213.18 755.83 214.75 756.28 216.51 756.48 218.32 756.41 220.01 756.08"/>
  </g>
  <g id="LWPOLYLINE13" data-name="LWPOLYLINE">
    <polyline class="st2" points="142.41 688.88 140.99 689.45 139.97 690.2 139.44 691.06 139.44 691.97 139.97 692.83 140.99 693.58 142.41 694.15 144.1 694.48 145.9 694.55 147.67 694.34 149.24 693.89 150.47 693.23 151.26 692.41 151.53 691.51 151.26 690.62 150.47 689.8 149.24 689.14 147.67 688.68 145.9 688.48 144.1 688.55 142.41 688.88"/>
  </g>
  <g id="LWPOLYLINE14" data-name="LWPOLYLINE">
    <polyline class="st2" points="285.45 812.75 284.03 813.32 283.01 814.07 282.47 814.93 282.47 815.84 283.01 816.7 284.03 817.45 285.45 818.02 287.13 818.35 288.94 818.42 290.71 818.21 292.27 817.76 293.51 817.1 294.29 816.28 294.56 815.39 294.29 814.49 293.51 813.67 292.27 813.01 290.71 812.56 288.94 812.35 287.13 812.42 285.45 812.75"/>
  </g>
  <g id="LWPOLYLINE15" data-name="LWPOLYLINE">
    <polyline class="st2" points="833.29 572.02 831.87 572.59 830.85 573.34 830.31 574.2 830.31 575.11 830.85 575.98 831.87 576.72 833.29 577.29 834.97 577.62 836.78 577.69 838.55 577.49 840.12 577.03 841.35 576.37 842.13 575.55 842.4 574.66 842.13 573.76 841.35 572.94 840.12 572.28 838.55 571.83 836.78 571.63 834.97 571.69 833.29 572.02"/>
  </g>
  <g id="HATCH2" data-name="HATCH">
    <path class="st4" d="M142.41,688.88l-1.42.56-1.02.75-.53.87v.91l.53.87,1.02.75,1.42.56,1.69.33,1.81.07,1.77-.2,1.57-.45,1.23-.66.79-.82.27-.9-.27-.9-.79-.82-1.23-.66-1.57-.45-1.77-.2-1.81.07-1.69.33M266.28,653.12l-1.42.56-1.02.75-.53.87v.91l.53.87,1.02.75,1.42.56,1.69.33,1.81.07,1.77-.2,1.57-.45,1.23-.66.79-.82.27-.9-.27-.9-.79-.82-1.23-.66-1.57-.45-1.77-.2-1.81.07-1.69.33M390.15,617.36l-1.42.56-1.02.75-.53.87v.91l.53.87,1.02.75,1.42.56,1.69.33,1.81.07,1.77-.2,1.57-.45,1.23-.66.79-.82.27-.9-.27-.9-.79-.82-1.23-.66-1.57-.45-1.77-.2-1.81.07-1.69.33M514.03,581.61l-1.42.56-1.02.75-.53.87v.91l.53.87,1.02.75,1.42.56,1.69.33,1.81.07,1.77-.2,1.57-.45,1.23-.66.79-.82.27-.9-.27-.9-.79-.82-1.23-.66-1.57-.45-1.77-.2-1.81.07-1.69.33M637.9,545.85l-1.42.56-1.02.75-.53.87v.91l.53.87,1.02.75,1.42.56,1.69.33,1.81.07,1.77-.2,1.57-.45,1.23-.66.79-.82.27-.9-.27-.9-.79-.82-1.23-.66-1.57-.45-1.77-.2-1.81.07-1.69.33M761.77,510.09l-1.42.56-1.02.75-.53.87v.91l.53.87,1.02.75,1.42.56,1.69.33,1.81.07,1.77-.2,1.57-.45,1.23-.66.79-.82.27-.9-.27-.9-.79-.82-1.23-.66-1.57-.45-1.77-.2-1.81.07-1.69.33M833.29,572.02l-1.42.56-1.02.75-.53.87v.91l.53.87,1.02.75,1.42.56,1.69.33,1.81.07,1.77-.2,1.57-.45,1.23-.66.79-.82.27-.9-.27-.9-.79-.82-1.23-.66-1.57-.45-1.77-.2-1.81.07-1.69.33M904.8,633.96l-1.42.56-1.02.75-.53.87v.91l.53.87,1.02.75,1.42.56,1.69.33,1.81.07,1.77-.2,1.57-.45,1.23-.66.79-.82.27-.9-.27-.9-.79-.82-1.23-.66-1.57-.45-1.77-.2-1.81.07-1.69.33M780.93,669.72l-1.42.56-1.02.75-.53.87v.91l.53.87,1.02.75,1.42.56,1.69.33,1.81.07,1.77-.2,1.57-.45,1.23-.66.79-.82.27-.9-.27-.9-.79-.82-1.23-.66-1.57-.45-1.77-.2-1.81.07-1.69.33M657.06,705.48l-1.42.56-1.02.75-.53.87v.91l.53.87,1.02.75,1.42.56,1.69.33,1.81.07,1.77-.2,1.57-.45,1.23-.66.79-.82.27-.9-.27-.9-.79-.82-1.23-.66-1.57-.45-1.77-.2-1.81.07-1.69.33M533.19,741.24l-1.42.56-1.02.75-.53.87v.91l.53.87,1.02.75,1.42.56,1.69.33,1.81.07,1.77-.2,1.57-.45,1.23-.66.79-.82.27-.9-.27-.9-.79-.82-1.23-.66-1.57-.45-1.77-.2-1.81.07-1.69.33M409.32,776.99l-1.42.56-1.02.75-.53.87v.91l.53.87,1.02.75,1.42.56,1.69.33,1.81.07,1.77-.2,1.57-.45,1.23-.66.79-.82.27-.9-.27-.9-.79-.82-1.23-.66-1.57-.45-1.77-.2-1.81.07-1.69.33M285.45,812.75l-1.42.56-1.02.75-.53.87v.91l.53.87,1.02.75,1.42.56,1.69.33,1.81.07,1.77-.2,1.57-.45,1.23-.66.79-.82.27-.9-.27-.9-.79-.82-1.23-.66-1.57-.45-1.77-.2-1.81.07-1.69.33M220.01,756.08l1.42-.56,1.02-.75.53-.87v-.91l-.53-.87-1.02-.75-1.42-.56-1.69-.33-1.81-.07-1.77.2-1.57.45-1.23.66-.79.82-.27.9.27.9.79.82,1.23.66,1.57.45,1.77.2,1.81-.07,1.69-.33Z"/>
  </g>
</svg>