<?xml version="1.0" encoding="UTF-8"?>
<svg id="Layer1" xmlns="http://www.w3.org/2000/svg" width="1920" height="1080" version="1.1" viewBox="0 0 1920 1080">
  <!-- Generator: Adobe Illustrator 30.4.0, SVG Export Plug-In . SVG Version: 2.1.4 Build 226)  -->
  <defs>
    <style>
      .st0 {
        stroke: #c7c8ca;
      }

      .st0, .st1, .st2 {
        fill: none;
        stroke-linecap: round;
        stroke-linejoin: round;
      }

      .st0, .st2 {
        stroke-width: 2px;
      }

      .st3 {
        fill: #f0ede6;
      }

      .st3, .st4, .st5 {
        fill-rule: evenodd;
      }

      .st4 {
        fill: #ff5239;
      }

      .st5 {
        fill: #c4bfbb;
      }

      .st1 {
        stroke-width: 2px;
      }

      .st1, .st2 {
        stroke: #ff5239;
      }

      .st2 {
        stroke-dasharray: 1.21 .61;
      }
    </style>
  </defs>
  <g id="ARC">
    <path class="st0" d="M265.34,831.04c1.74,1.12,3.88,1.41,5.85.78"/>
  </g>
  <g id="LINE">
    <line class="st0" x1="1810.2" y1="387.55" x2="271.19" y2="831.83"/>
  </g>
  <g id="LINE1" data-name="LINE">
    <line class="st0" x1="265.34" y1="831.04" x2="91.06" y2="680.11"/>
  </g>
  <g id="ARC1" data-name="ARC">
    <path class="st0" d="M90.48,679.04c.02.42.23.82.57,1.07"/>
  </g>
  <g id="LWPOLYLINE">
    <polyline class="st0" points="1810.2 387.55 1810.88 387.31 1811.46 387 1811.9 386.64 1812.2 386.25 1812.34 385.84 1812.34 385.7"/>
  </g>
  <g id="HATCH">
    <path class="st3" d="M1810.2,387.55l.68-.24.57-.31.44-.36.3-.39.14-.41v-.14s-1.47-3.24-1.47-3.24l-174.28-150.93-3.99-.88L93.58,674.92l-3.1,4.12.57,1.07,174.28,150.93,5.85.78,1539.01-444.27M539.59,741.87l1.41.56,1.02.75.53.86v.9l-.53.86-1.02.75-1.41.56-1.68.33-1.8.07-1.76-.2-1.57-.45-1.23-.66-.79-.82-.27-.89.27-.89.79-.82,1.23-.66,1.57-.45,1.76-.2,1.8.07,1.68.33M521.86,587.14l-1.41.56-1.68.33-1.8.07-1.76-.2-1.57-.45-1.23-.66-.79-.82-.27-.89.27-.89.79-.82,1.23-.66,1.57-.45,1.76-.2,1.8.07,1.68.33,1.41.56,1.02.75.53.86v.9l-.53.86-1.02.75M654.47,707.89l.79-.82,1.23-.66,1.57-.45,1.76-.2,1.8.07,1.68.33,1.41.56,1.02.75.53.86v.9l-.53.86-1.02.75-1.41.56-1.68.33-1.8.07-1.76-.2-1.57-.45-1.23-.66-.79-.82-.27-.89.27-.89M636.11,551.07l-.79-.82-.27-.89.27-.89.79-.82,1.23-.66,1.57-.45,1.76-.2,1.8.07,1.68.33,1.41.56,1.02.75.53.86v.9l-.53.86-1.02.75-1.41.56-1.68.33-1.8.07-1.76-.2-1.57-.45-1.23-.66M399.7,621.24l-.53.86-1.02.75-1.41.56-1.68.33-1.8.07-1.76-.2-1.57-.45-1.23-.66-.79-.82-.27-.89.27-.89.79-.82,1.23-.66,1.57-.45,1.76-.2,1.8.07,1.68.33,1.41.56,1.02.75.53.86v.9M418.31,778.9l.53.86v.9l-.53.86-1.02.75-1.41.56-1.68.33-1.8.07-1.76-.2-1.57-.45-1.23-.66-.79-.82-.27-.89.27-.89.79-.82,1.23-.66,1.57-.45,1.76-.2,1.8.07,1.68.33,1.41.56,1.02.75M777.91,673.07l.27-.89.79-.82,1.23-.66,1.57-.45,1.76-.2,1.8.07,1.68.33,1.41.56,1.02.75.53.86v.9l-.53.86-1.02.75-1.41.56-1.68.33-1.8.07-1.76-.2-1.57-.45-1.23-.66-.79-.82-.27-.89M759.04,514.54l-.27-.89.27-.89.79-.82,1.23-.66,1.57-.45,1.76-.2,1.8.07,1.68.33,1.41.56,1.02.75.53.86v.9l-.53.86-1.02.75-1.41.56-1.68.33-1.8.07-1.76-.2-1.57-.45-1.23-.66-.79-.82M275.99,656.95l-.53.86-1.02.75-1.41.56-1.68.33-1.8.07-1.76-.2-1.57-.45-1.23-.66-.79-.82-.27-.89.27-.89.79-.82,1.23-.66,1.57-.45,1.76-.2,1.8.07,1.68.33,1.41.56,1.02.75.53.86v.9M295.13,815.48v.9l-.53.86-1.02.75-1.41.56-1.68.33-1.8.07-1.76-.2-1.57-.45-1.23-.66-.79-.82-.27-.89.27-.89.79-.82,1.23-.66,1.57-.45,1.76-.2,1.8.07,1.68.33,1.41.56,1.02.75.53.86M901.62,637.36l.27-.89.79-.82,1.23-.66,1.57-.45,1.76-.2,1.8.07,1.68.33,1.41.56,1.02.75.53.86v.9l-.53.86-1.02.75-1.41.56-1.68.33-1.8.07-1.76-.2-1.57-.45-1.23-.66-.79-.82-.27-.89M223.77,754.07l-.27.89-.79.82-1.23.66-1.57.45-1.76.2-1.8-.07-1.68-.33-1.41-.56-1.02-.75-.53-.86v-.9l.53-.86,1.02-.75,1.41-.56,1.68-.33,1.8-.07,1.76.2,1.57.45,1.23.66.79.82.27.89M882.76,478.83l-.27-.89.27-.89.79-.82,1.23-.66,1.57-.45,1.76-.2,1.8.07,1.68.33,1.41.56,1.02.75.53.86v.9l-.53.86-1.02.75-1.41.56-1.68.33-1.8.07-1.76-.2-1.57-.45-1.23-.66-.79-.82M152.27,691.76v.9l-.53.86-1.02.75-1.41.56-1.68.33-1.8.07-1.76-.2-1.57-.45-1.23-.66-.79-.82-.27-.89.27-.89.79-.82,1.23-.66,1.57-.45,1.76-.2,1.8.07,1.68.33,1.41.56,1.02.75.53.86M1025.34,601.65l.27-.89.79-.82,1.23-.66,1.57-.45,1.76-.2,1.8.07,1.68.33,1.41.56,1.02.75.53.86v.9l-.53.86-1.02.75-1.41.56-1.68.33-1.8.07-1.76-.2-1.57-.45-1.23-.66-.79-.82-.27-.89M1006.47,443.11l-.27-.89.27-.89.79-.82,1.23-.66,1.57-.45,1.76-.2,1.8.07,1.68.33,1.41.56,1.02.75.53.86v.9l-.53.86-1.02.75-1.41.56-1.68.33-1.8.07-1.76-.2-1.57-.45-1.23-.66-.79-.82M1149.05,565.93l.27-.89.79-.82,1.23-.66,1.57-.45,1.76-.2,1.8.07,1.68.33,1.41.56,1.02.75.53.86v.9l-.53.86-1.02.75-1.41.56-1.68.33-1.8.07-1.76-.2-1.57-.45-1.23-.66-.79-.82-.27-.89M1130.19,407.4l-.27-.89.27-.89.79-.82,1.23-.66,1.57-.45,1.76-.2,1.8.07,1.68.33,1.41.56,1.02.75.53.86v.9l-.53.86-1.02.75-1.41.56-1.68.33-1.8.07-1.76-.2-1.57-.45-1.23-.66-.79-.82M1272.77,530.22l.27-.89.79-.82,1.23-.66,1.57-.45,1.76-.2,1.8.07,1.68.33,1.41.56,1.02.75.53.86v.9l-.53.86-1.02.75-1.41.56-1.68.33-1.8.07-1.76-.2-1.57-.45-1.23-.66-.79-.82-.27-.89M1253.9,371.69l-.27-.89.27-.89.79-.82,1.23-.66,1.57-.45,1.76-.2,1.8.07,1.68.33,1.41.56,1.02.75.53.86v.9l-.53.86-1.02.75-1.41.56-1.68.33-1.8.07-1.76-.2-1.57-.45-1.23-.66-.79-.82M1396.48,494.51l.27-.89.79-.82,1.23-.66,1.57-.45,1.76-.2,1.8.07,1.68.33,1.41.56,1.02.75.53.86v.9l-.53.86-1.02.75-1.41.56-1.68.33-1.8.07-1.76-.2-1.57-.45-1.23-.66-.79-.82-.27-.89M1377.61,335.97l-.27-.89.27-.89.79-.82,1.23-.66,1.57-.45,1.76-.2,1.8.07,1.68.33,1.41.56,1.02.75.53.86v.9s-.53.86-.53.86l-1.02.75-1.41.56-1.68.33-1.8.07-1.76-.2-1.57-.45-1.23-.66-.79-.82M1520.2,458.79l.27-.89.79-.82,1.23-.66,1.57-.45,1.76-.2,1.8.07,1.68.33,1.41.56,1.02.75.53.86v.9s-.53.86-.53.86l-1.02.75-1.41.56-1.68.33-1.8.07-1.76-.2-1.57-.45-1.23-.66-.79-.82-.27-.89M1501.33,300.26l-.27-.89.27-.89.79-.82,1.23-.66,1.57-.45,1.76-.2,1.8.07,1.68.33,1.41.56,1.02.75.53.86v.9l-.53.86-1.02.75-1.41.56-1.68.33-1.8.07-1.76-.2-1.57-.45-1.23-.66-.79-.82M1643.91,423.08l.27-.89.79-.82,1.23-.66,1.57-.45,1.76-.2,1.8.07,1.68.33,1.41.56,1.02.75.53.86v.9l-.53.86-1.02.75-1.41.56-1.68.33-1.8.07-1.76-.2-1.57-.45-1.23-.66-.79-.82-.27-.89M1625.04,264.55l-.27-.89.27-.89.79-.82,1.23-.66,1.57-.45,1.76-.2,1.8.07,1.68.33,1.41.56,1.02.75.53.86v.9l-.53.86-1.02.75-1.41.56-1.68.33-1.8.07-1.76-.2-1.57-.45-1.23-.66-.79-.82M1696.2,325.51l.27-.89.79-.82,1.23-.66,1.57-.45,1.76-.2,1.8.07,1.68.33,1.41.56,1.02.75.53.86v.9l-.53.86-1.02.75-1.41.56-1.68.33-1.8.07-1.76-.2-1.57-.45-1.23-.66-.79-.82-.27-.89M1767.63,387.37l.27-.89.79-.82,1.23-.66,1.57-.45,1.76-.2,1.8.07,1.68.33,1.41.56,1.02.75.53.86v.9l-.53.86-1.02.75-1.41.56-1.68.33-1.8.07-1.76-.2-1.57-.45-1.23-.66-.79-.82-.27-.89Z"/>
  </g>
  <g id="HATCH1" data-name="HATCH">
    <polygon class="st5" points="1801.4 410.37 1802.08 410.2 1804.91 409.04 1807.09 407.73 1808.89 406.2 1810.32 404.48 1811.47 402.41 1812.13 400.23 1812.34 398.07 1812.34 386.06 1811.75 386.84 1810.88 387.31 1810.2 387.55 271.19 831.83 265.34 831.04 90.48 679.61 90.48 691.41 96.3 702.5 267.72 851.01 272.37 851.76 1801.4 410.37"/>
  </g>
  <g id="ARC2" data-name="ARC">
    <path class="st1" d="M267.39,850.73c1.33,1.26,3.26,1.66,4.98,1.03"/>
  </g>
  <g id="LINE2" data-name="LINE">
    <line class="st1" x1="272.37" y1="851.76" x2="1801.4" y2="410.37"/>
  </g>
  <g id="LINE3" data-name="LINE">
    <line class="st1" x1="96.3" y1="702.5" x2="267.39" y2="850.73"/>
  </g>
  <g id="ARC3" data-name="ARC">
    <path class="st1" d="M90.48,691.41c.18,4.38,2.32,8.45,5.82,11.09"/>
  </g>
  <g id="ARC4" data-name="ARC">
    <path class="st1" d="M93.58,674.92c-1.83.53-3.1,2.21-3.1,4.12"/>
  </g>
  <g id="LINE4" data-name="LINE">
    <line class="st1" x1="1632.59" y1="230.65" x2="93.58" y2="674.92"/>
  </g>
  <g id="LINE5" data-name="LINE">
    <line class="st1" x1="90.48" y1="679.04" x2="90.48" y2="691.41"/>
  </g>
  <g id="ARC5" data-name="ARC">
    <path class="st1" d="M1812.34,385.7c0-1.24-.54-2.43-1.48-3.24"/>
  </g>
  <g id="LINE6" data-name="LINE">
    <line class="st1" x1="1812.34" y1="398.07" x2="1812.34" y2="385.7"/>
  </g>
  <g id="LINE7" data-name="LINE">
    <line class="st1" x1="1810.86" y1="382.46" x2="1636.58" y2="231.52"/>
  </g>
  <g id="LWPOLYLINE1" data-name="LWPOLYLINE">
    <polyline class="st1" points="1801.4 410.37 1802.08 410.2 1804.91 409.04 1807.09 407.73 1808.89 406.2 1810.32 404.48 1811.47 402.41 1812.13 400.23 1812.34 398.07"/>
  </g>
  <g id="ARC6" data-name="ARC">
    <path class="st1" d="M1636.58,231.52c-1.1-.95-2.6-1.28-3.99-.88"/>
  </g>
  <g id="LWPOLYLINE2" data-name="LWPOLYLINE">
    <polyline class="st2" points="149.3 694.84 150.72 694.28 151.74 693.53 152.27 692.67 152.27 691.76 151.74 690.9 150.72 690.15 149.3 689.58 147.62 689.25 145.82 689.19 144.05 689.39 142.48 689.84 141.25 690.5 140.47 691.32 140.2 692.21 140.47 693.11 141.25 693.92 142.48 694.59 144.05 695.04 145.82 695.24 147.62 695.17 149.3 694.84"/>
  </g>
  <g id="LWPOLYLINE3" data-name="LWPOLYLINE">
    <polyline class="st2" points="1015.31 444.85 1016.72 444.28 1017.74 443.54 1018.28 442.67 1018.28 441.77 1017.74 440.9 1016.72 440.15 1015.31 439.59 1013.62 439.26 1011.82 439.19 1010.05 439.39 1008.49 439.85 1007.26 440.51 1006.47 441.32 1006.2 442.22 1006.47 443.11 1007.26 443.93 1008.49 444.59 1010.05 445.05 1011.82 445.25 1013.62 445.18 1015.31 444.85"/>
  </g>
  <g id="LWPOLYLINE4" data-name="LWPOLYLINE">
    <polyline class="st2" points="1158.16 568.56 1159.58 568 1160.6 567.25 1161.13 566.39 1161.13 565.48 1160.6 564.62 1159.58 563.87 1158.16 563.31 1156.48 562.97 1154.67 562.91 1152.91 563.11 1151.34 563.56 1150.11 564.22 1149.32 565.04 1149.05 565.93 1149.32 566.83 1150.11 567.64 1151.34 568.31 1152.91 568.76 1154.67 568.96 1156.48 568.89 1158.16 568.56"/>
  </g>
  <g id="LWPOLYLINE5" data-name="LWPOLYLINE">
    <polyline class="st2" points="1139.02 409.14 1140.44 408.57 1141.46 407.82 1141.99 406.96 1141.99 406.05 1141.46 405.19 1140.44 404.44 1139.02 403.88 1137.34 403.55 1135.53 403.48 1133.77 403.68 1132.2 404.13 1130.97 404.8 1130.19 405.61 1129.92 406.51 1130.19 407.4 1130.97 408.22 1132.2 408.88 1133.77 409.33 1135.53 409.53 1137.34 409.47 1139.02 409.14"/>
  </g>
  <g id="LWPOLYLINE6" data-name="LWPOLYLINE">
    <polyline class="st2" points="1281.88 532.85 1283.29 532.29 1284.31 531.54 1284.84 530.67 1284.84 529.77 1284.31 528.9 1283.29 528.16 1281.88 527.59 1280.19 527.26 1278.39 527.19 1276.62 527.4 1275.05 527.85 1273.82 528.51 1273.04 529.33 1272.77 530.22 1273.04 531.12 1273.82 531.93 1275.05 532.59 1276.62 533.05 1278.39 533.25 1280.19 533.18 1281.88 532.85"/>
  </g>
  <g id="LWPOLYLINE7" data-name="LWPOLYLINE">
    <polyline class="st2" points="1510.17 302 1511.58 301.43 1512.6 300.68 1513.13 299.82 1513.13 298.91 1512.6 298.05 1511.58 297.3 1510.17 296.74 1508.48 296.41 1506.68 296.34 1504.91 296.54 1503.35 296.99 1502.11 297.66 1501.33 298.47 1501.06 299.37 1501.33 300.26 1502.11 301.08 1503.35 301.74 1504.91 302.19 1506.68 302.39 1508.48 302.33 1510.17 302"/>
  </g>
  <g id="LWPOLYLINE8" data-name="LWPOLYLINE">
    <polyline class="st2" points="1529.31 461.42 1530.72 460.86 1531.74 460.11 1532.27 459.25 1532.27 458.34 1531.74 457.48 1530.72 456.73 1529.31 456.17 1527.62 455.83 1525.82 455.77 1524.05 455.97 1522.48 456.42 1521.25 457.08 1520.47 457.9 1520.2 458.79 1520.47 459.69 1521.25 460.5 1522.48 461.17 1524.05 461.62 1525.82 461.82 1527.62 461.75 1529.31 461.42"/>
  </g>
  <g id="LWPOLYLINE9" data-name="LWPOLYLINE">
    <polyline class="st2" points="1386.45 337.71 1387.87 337.14 1388.89 336.4 1389.42 335.53 1389.42 334.63 1388.89 333.76 1387.87 333.01 1386.45 332.45 1384.77 332.12 1382.96 332.05 1381.2 332.25 1379.63 332.71 1378.4 333.37 1377.61 334.18 1377.34 335.08 1377.61 335.97 1378.4 336.79 1379.63 337.45 1381.2 337.91 1382.96 338.11 1384.77 338.04 1386.45 337.71"/>
  </g>
  <g id="LWPOLYLINE10" data-name="LWPOLYLINE">
    <polyline class="st2" points="1405.59 497.14 1407.01 496.57 1408.02 495.82 1408.56 494.96 1408.56 494.06 1408.02 493.19 1407.01 492.44 1405.59 491.88 1403.91 491.55 1402.1 491.48 1400.34 491.68 1398.77 492.13 1397.54 492.8 1396.75 493.61 1396.48 494.51 1396.75 495.4 1397.54 496.22 1398.77 496.88 1400.34 497.33 1402.1 497.53 1403.91 497.47 1405.59 497.14"/>
  </g>
  <g id="LWPOLYLINE11" data-name="LWPOLYLINE">
    <polyline class="st2" points="1776.73 390 1778.15 389.43 1779.17 388.68 1779.7 387.82 1779.7 386.92 1779.17 386.05 1778.15 385.3 1776.73 384.74 1775.05 384.41 1773.25 384.34 1771.48 384.54 1769.91 384.99 1768.68 385.66 1767.9 386.47 1767.63 387.37 1767.9 388.26 1768.68 389.08 1769.91 389.74 1771.48 390.19 1773.25 390.39 1775.05 390.33 1776.73 390"/>
  </g>
  <g id="LWPOLYLINE12" data-name="LWPOLYLINE">
    <polyline class="st2" points="1633.88 266.28 1635.3 265.72 1636.32 264.97 1636.85 264.11 1636.85 263.2 1636.32 262.34 1635.3 261.59 1633.88 261.02 1632.2 260.69 1630.39 260.63 1628.63 260.83 1627.06 261.28 1625.83 261.94 1625.04 262.76 1624.77 263.65 1625.04 264.55 1625.83 265.36 1627.06 266.03 1628.63 266.48 1630.39 266.68 1632.2 266.61 1633.88 266.28"/>
  </g>
  <g id="LWPOLYLINE13" data-name="LWPOLYLINE">
    <polyline class="st2" points="1653.02 425.71 1654.43 425.15 1655.45 424.4 1655.99 423.53 1655.99 422.63 1655.45 421.76 1654.43 421.02 1653.02 420.45 1651.34 420.12 1649.53 420.05 1647.77 420.26 1646.2 420.71 1644.97 421.37 1644.18 422.19 1643.91 423.08 1644.18 423.98 1644.97 424.79 1646.2 425.45 1647.77 425.91 1649.53 426.11 1651.34 426.04 1653.02 425.71"/>
  </g>
  <g id="LWPOLYLINE14" data-name="LWPOLYLINE">
    <polyline class="st2" points="539.59 747.13 541 746.57 542.02 745.82 542.56 744.95 542.56 744.05 542.02 743.18 541 742.44 539.59 741.87 537.9 741.54 536.1 741.47 534.33 741.68 532.77 742.13 531.54 742.79 530.75 743.61 530.48 744.5 530.75 745.4 531.54 746.21 532.77 746.87 534.33 747.33 536.1 747.53 537.9 747.46 539.59 747.13"/>
  </g>
  <g id="LWPOLYLINE15" data-name="LWPOLYLINE">
    <polyline class="st2" points="396.73 623.42 398.15 622.85 399.17 622.1 399.7 621.24 399.7 620.33 399.17 619.47 398.15 618.72 396.73 618.16 395.05 617.83 393.24 617.76 391.48 617.96 389.91 618.41 388.68 619.08 387.9 619.89 387.63 620.79 387.9 621.68 388.68 622.5 389.91 623.16 391.48 623.61 393.24 623.81 395.05 623.75 396.73 623.42"/>
  </g>
  <g id="LWPOLYLINE16" data-name="LWPOLYLINE">
    <polyline class="st2" points="415.87 782.84 417.29 782.28 418.31 781.53 418.84 780.67 418.84 779.76 418.31 778.9 417.29 778.15 415.87 777.59 414.19 777.25 412.38 777.19 410.62 777.39 409.05 777.84 407.82 778.5 407.04 779.32 406.77 780.21 407.04 781.11 407.82 781.92 409.05 782.59 410.62 783.04 412.38 783.24 414.19 783.17 415.87 782.84"/>
  </g>
  <g id="LWPOLYLINE17" data-name="LWPOLYLINE">
    <polyline class="st2" points="214.66 751.44 213.25 752.01 212.23 752.75 211.69 753.62 211.69 754.52 212.23 755.39 213.25 756.14 214.66 756.7 216.34 757.03 218.15 757.1 219.91 756.9 221.48 756.44 222.71 755.78 223.5 754.97 223.77 754.07 223.5 753.18 222.71 752.36 221.48 751.7 219.91 751.24 218.15 751.04 216.34 751.11 214.66 751.44"/>
  </g>
  <g id="LWPOLYLINE18" data-name="LWPOLYLINE">
    <polyline class="st2" points="1262.74 373.42 1264.15 372.86 1265.17 372.11 1265.7 371.25 1265.7 370.34 1265.17 369.48 1264.15 368.73 1262.74 368.16 1261.05 367.83 1259.25 367.77 1257.48 367.97 1255.92 368.42 1254.69 369.08 1253.9 369.9 1253.63 370.79 1253.9 371.69 1254.69 372.5 1255.92 373.17 1257.48 373.62 1259.25 373.82 1261.05 373.75 1262.74 373.42"/>
  </g>
  <g id="LWPOLYLINE19" data-name="LWPOLYLINE">
    <polyline class="st2" points="273.02 659.13 274.43 658.56 275.45 657.82 275.99 656.95 275.99 656.05 275.45 655.18 274.43 654.43 273.02 653.87 271.33 653.54 269.53 653.47 267.77 653.67 266.2 654.13 264.97 654.79 264.18 655.6 263.91 656.5 264.18 657.39 264.97 658.21 266.2 658.87 267.77 659.33 269.53 659.53 271.33 659.46 273.02 659.13"/>
  </g>
  <g id="LWPOLYLINE20" data-name="LWPOLYLINE">
    <polyline class="st2" points="292.16 818.56 293.57 817.99 294.59 817.24 295.13 816.38 295.13 815.48 294.59 814.61 293.57 813.86 292.16 813.3 290.47 812.97 288.67 812.9 286.9 813.1 285.34 813.55 284.11 814.22 283.32 815.03 283.05 815.93 283.32 816.82 284.11 817.64 285.34 818.3 286.9 818.75 288.67 818.95 290.47 818.89 292.16 818.56"/>
  </g>
  <g id="LWPOLYLINE21" data-name="LWPOLYLINE">
    <polyline class="st2" points="1705.31 328.14 1706.72 327.57 1707.74 326.83 1708.28 325.96 1708.28 325.06 1707.74 324.19 1706.72 323.45 1705.31 322.88 1703.62 322.55 1701.82 322.48 1700.05 322.68 1698.49 323.14 1697.26 323.8 1696.47 324.62 1696.2 325.51 1696.47 326.4 1697.26 327.22 1698.49 327.88 1700.05 328.34 1701.82 328.54 1703.62 328.47 1705.31 328.14"/>
  </g>
  <g id="LWPOLYLINE22" data-name="LWPOLYLINE">
    <polyline class="st2" points="520.45 587.7 521.86 587.14 522.88 586.39 523.42 585.53 523.42 584.62 522.88 583.76 521.86 583.01 520.45 582.44 518.76 582.11 516.96 582.05 515.2 582.25 513.63 582.7 512.4 583.36 511.61 584.18 511.34 585.07 511.61 585.97 512.4 586.78 513.63 587.45 515.2 587.9 516.96 588.1 518.76 588.03 520.45 587.7"/>
  </g>
  <g id="LWPOLYLINE23" data-name="LWPOLYLINE">
    <polyline class="st2" points="663.3 711.42 664.72 710.85 665.74 710.1 666.27 709.24 666.27 708.34 665.74 707.47 664.72 706.72 663.3 706.16 661.62 705.83 659.81 705.76 658.05 705.96 656.48 706.41 655.25 707.08 654.47 707.89 654.2 708.79 654.47 709.68 655.25 710.5 656.48 711.16 658.05 711.61 659.81 711.81 661.62 711.75 663.3 711.42"/>
  </g>
  <g id="LWPOLYLINE24" data-name="LWPOLYLINE">
    <polyline class="st2" points="644.16 551.99 645.58 551.42 646.6 550.68 647.13 549.81 647.13 548.91 646.6 548.04 645.58 547.29 644.16 546.73 642.48 546.4 640.67 546.33 638.91 546.53 637.34 546.99 636.11 547.65 635.33 548.46 635.06 549.36 635.33 550.25 636.11 551.07 637.34 551.73 638.91 552.19 640.67 552.39 642.48 552.32 644.16 551.99"/>
  </g>
  <g id="LWPOLYLINE25" data-name="LWPOLYLINE">
    <polyline class="st2" points="787.02 675.7 788.43 675.14 789.45 674.39 789.98 673.53 789.98 672.62 789.45 671.76 788.43 671.01 787.02 670.45 785.33 670.11 783.53 670.05 781.76 670.25 780.2 670.7 778.97 671.36 778.18 672.18 777.91 673.07 778.18 673.97 778.97 674.78 780.2 675.45 781.76 675.9 783.53 676.1 785.33 676.03 787.02 675.7"/>
  </g>
  <g id="LWPOLYLINE26" data-name="LWPOLYLINE">
    <polyline class="st2" points="767.88 516.28 769.29 515.71 770.31 514.96 770.85 514.1 770.85 513.19 770.31 512.33 769.29 511.58 767.88 511.02 766.19 510.69 764.39 510.62 762.62 510.82 761.06 511.27 759.83 511.94 759.04 512.75 758.77 513.65 759.04 514.54 759.83 515.36 761.06 516.02 762.62 516.47 764.39 516.67 766.19 516.61 767.88 516.28"/>
  </g>
  <g id="LWPOLYLINE27" data-name="LWPOLYLINE">
    <polyline class="st2" points="910.73 639.99 912.15 639.43 913.17 638.68 913.7 637.81 913.7 636.91 913.17 636.04 912.15 635.3 910.73 634.73 909.05 634.4 907.24 634.33 905.48 634.54 903.91 634.99 902.68 635.65 901.89 636.47 901.62 637.36 901.89 638.26 902.68 639.07 903.91 639.73 905.48 640.19 907.24 640.39 909.05 640.32 910.73 639.99"/>
  </g>
  <g id="LWPOLYLINE28" data-name="LWPOLYLINE">
    <polyline class="st2" points="891.59 480.56 893.01 480 894.03 479.25 894.56 478.39 894.56 477.48 894.03 476.62 893.01 475.87 891.59 475.3 889.91 474.97 888.1 474.91 886.34 475.11 884.77 475.56 883.54 476.22 882.76 477.04 882.49 477.93 882.76 478.83 883.54 479.64 884.77 480.31 886.34 480.76 888.1 480.96 889.91 480.89 891.59 480.56"/>
  </g>
  <g id="LWPOLYLINE29" data-name="LWPOLYLINE">
    <polyline class="st2" points="1034.45 604.28 1035.86 603.71 1036.88 602.96 1037.41 602.1 1037.41 601.2 1036.88 600.33 1035.86 599.58 1034.45 599.02 1032.76 598.69 1030.96 598.62 1029.19 598.82 1027.63 599.27 1026.39 599.94 1025.61 600.75 1025.34 601.65 1025.61 602.54 1026.39 603.36 1027.63 604.02 1029.19 604.47 1030.96 604.67 1032.76 604.61 1034.45 604.28"/>
  </g>
  <g id="HATCH2" data-name="HATCH">
    <path class="st4" d="M273.02,659.13l1.41-.56,1.02-.75.53-.86v-.9l-.53-.86-1.02-.75-1.41-.56-1.68-.33-1.8-.07-1.76.2-1.57.45-1.23.66-.79.82-.27.89.27.89.79.82,1.23.66,1.57.45,1.76.2,1.8-.07,1.68-.33M214.66,751.44l-1.41.56-1.02.75-.53.86v.9l.53.86,1.02.75,1.41.56,1.68.33,1.8.07,1.76-.2,1.57-.45,1.23-.66.79-.82.27-.89-.27-.89-.79-.82-1.23-.66-1.57-.45-1.76-.2-1.8.07-1.68.33M149.3,694.84l1.41-.56,1.02-.75.53-.86v-.9l-.53-.86-1.02-.75-1.41-.56-1.68-.33-1.8-.07-1.76.2-1.57.45-1.23.66-.79.82-.27.89.27.89.79.82,1.23.66,1.57.45,1.76.2,1.8-.07,1.68-.33M292.16,818.56l1.41-.56,1.02-.75.53-.86v-.9l-.53-.86-1.02-.75-1.41-.56-1.68-.33-1.8-.07-1.76.2-1.57.45-1.23.66-.79.82-.27.89.27.89.79.82,1.23.66,1.57.45,1.76.2,1.8-.07,1.68-.33M415.87,782.84l1.41-.56,1.02-.75.53-.86v-.9l-.53-.86-1.02-.75-1.41-.56-1.68-.33-1.8-.07-1.76.2-1.57.45-1.23.66-.79.82-.27.89.27.89.79.82,1.23.66,1.57.45,1.76.2,1.8-.07,1.68-.33M520.45,587.7l1.41-.56,1.02-.75.53-.86v-.9l-.53-.86-1.02-.75-1.41-.56-1.68-.33-1.8-.07-1.76.2-1.57.45-1.23.66-.79.82-.27.89.27.89.79.82,1.23.66,1.57.45,1.76.2,1.8-.07,1.68-.33M396.73,623.42l1.41-.56,1.02-.75.53-.86v-.9l-.53-.86-1.02-.75-1.41-.56-1.68-.33-1.8-.07-1.76.2-1.57.45-1.23.66-.79.82-.27.89.27.89.79.82,1.23.66,1.57.45,1.76.2,1.8-.07,1.68-.33M539.59,747.13l1.41-.56,1.02-.75.53-.86v-.9l-.53-.86-1.02-.75-1.41-.56-1.68-.33-1.8-.07-1.76.2-1.57.45-1.23.66-.79.82-.27.89.27.89.79.82,1.23.66,1.57.45,1.76.2,1.8-.07,1.68-.33M1034.45,604.28l1.41-.56,1.02-.75.53-.86v-.9l-.53-.86-1.02-.75-1.41-.56-1.68-.33-1.8-.07-1.76.2-1.57.45-1.23.66-.79.82-.27.89.27.89.79.82,1.23.66,1.57.45,1.76.2,1.8-.07,1.68-.33M891.59,480.56l1.41-.56,1.02-.75.53-.86v-.9l-.53-.86-1.02-.75-1.41-.56-1.68-.33-1.8-.07-1.76.2-1.57.45-1.23.66-.79.82-.27.89.27.89.79.82,1.23.66,1.57.45,1.76.2,1.8-.07,1.68-.33M910.73,639.99l1.41-.56,1.02-.75.53-.86v-.9l-.53-.86-1.02-.75-1.41-.56-1.68-.33-1.8-.07-1.76.2-1.57.45-1.23.66-.79.82-.27.89.27.89.79.82,1.23.66,1.57.45,1.76.2,1.8-.07,1.68-.33M767.88,516.28l1.41-.56,1.02-.75.53-.86v-.9l-.53-.86-1.02-.75-1.41-.56-1.68-.33-1.8-.07-1.76.2-1.57.45-1.23.66-.79.82-.27.89.27.89.79.82,1.23.66,1.57.45,1.76.2,1.8-.07,1.68-.33M787.02,675.7l1.41-.56,1.02-.75.53-.86v-.9l-.53-.86-1.02-.75-1.41-.56-1.68-.33-1.8-.07-1.76.2-1.57.45-1.23.66-.79.82-.27.89.27.89.79.82,1.23.66,1.57.45,1.76.2,1.8-.07,1.68-.33M644.16,551.99l1.41-.56,1.02-.75.53-.86v-.9l-.53-.86-1.02-.75-1.41-.56-1.68-.33-1.8-.07-1.76.2-1.57.45-1.23.66-.79.82-.27.89.27.89.79.82,1.23.66,1.57.45,1.76.2,1.8-.07,1.68-.33M663.3,711.42l1.41-.56,1.02-.75.53-.86v-.9l-.53-.86-1.02-.75-1.41-.56-1.68-.33-1.8-.07-1.76.2-1.57.45-1.23.66-.79.82-.27.89.27.89.79.82,1.23.66,1.57.45,1.76.2,1.8-.07,1.68-.33M1405.59,497.14l1.41-.56,1.02-.75.53-.86v-.9l-.53-.86-1.02-.75-1.41-.56-1.68-.33-1.8-.07-1.76.2-1.57.45-1.23.66-.79.82-.27.89.27.89.79.82,1.23.66,1.57.45,1.76.2,1.8-.07,1.68-.33M1281.88,532.85l1.41-.56,1.02-.75.53-.86v-.9l-.53-.86-1.02-.75-1.41-.56-1.68-.33-1.8-.07-1.76.2-1.57.45-1.23.66-.79.82-.27.89.27.89.79.82,1.23.66,1.57.45,1.76.2,1.8-.07,1.68-.33M1158.16,568.56l1.41-.56,1.02-.75.53-.86v-.9l-.53-.86-1.02-.75-1.41-.56-1.68-.33-1.8-.07-1.76.2-1.57.45-1.23.66-.79.82-.27.89.27.89.79.82,1.23.66,1.57.45,1.76.2,1.8-.07,1.68-.33M1015.31,444.85l1.41-.56,1.02-.75.53-.86v-.9l-.53-.86-1.02-.75-1.41-.56-1.68-.33-1.8-.07-1.76.2-1.57.45-1.23.66-.79.82-.27.89.27.89.79.82,1.23.66,1.57.45,1.76.2,1.8-.07,1.68-.33M1262.74,373.42l1.41-.56,1.02-.75.53-.86v-.9l-.53-.86-1.02-.75-1.41-.56-1.68-.33-1.8-.07-1.76.2-1.57.45-1.23.66-.79.82-.27.89.27.89.79.82,1.23.66,1.57.45,1.76.2,1.8-.07,1.68-.33M1139.02,409.14l1.41-.56,1.02-.75.53-.86v-.9l-.53-.86-1.02-.75-1.41-.56-1.68-.33-1.8-.07-1.76.2-1.57.45-1.23.66-.79.82-.27.89.27.89.79.82,1.23.66,1.57.45,1.76.2,1.8-.07,1.68-.33M1386.45,337.71l1.41-.56,1.02-.75.53-.86v-.9l-.53-.86-1.02-.75-1.41-.56-1.68-.33-1.8-.07-1.76.2-1.57.45-1.23.66-.79.82-.27.89.27.89.79.82,1.23.66,1.57.45,1.76.2,1.8-.07,1.68-.33M1529.31,461.42l1.41-.56,1.02-.75.53-.86v-.9s-.53-.86-.53-.86l-1.02-.75-1.41-.56-1.68-.33-1.8-.07-1.76.2-1.57.45-1.23.66-.79.82-.27.89.27.89.79.82,1.23.66,1.57.45,1.76.2,1.8-.07,1.68-.33M1510.17,302l1.41-.56,1.02-.75.53-.86v-.9l-.53-.86-1.02-.75-1.41-.56-1.68-.33-1.8-.07-1.76.2-1.57.45-1.23.66-.79.82-.27.89.27.89.79.82,1.23.66,1.57.45,1.76.2,1.8-.07,1.68-.33M1653.02,425.71l1.41-.56,1.02-.75.53-.86v-.9l-.53-.86-1.02-.75-1.41-.56-1.68-.33-1.8-.07-1.76.2-1.57.45-1.23.66-.79.82-.27.89.27.89.79.82,1.23.66,1.57.45,1.76.2,1.8-.07,1.68-.33M1776.73,390l1.41-.56,1.02-.75.53-.86v-.9l-.53-.86-1.02-.75-1.41-.56-1.68-.33-1.8-.07-1.76.2-1.57.45-1.23.66-.79.82-.27.89.27.89.79.82,1.23.66,1.57.45,1.76.2,1.8-.07,1.68-.33M1705.31,328.14l1.41-.56,1.02-.75.53-.86v-.9l-.53-.86-1.02-.75-1.41-.56-1.68-.33-1.8-.07-1.76.2-1.57.45-1.23.66-.79.82-.27.89.27.89.79.82,1.23.66,1.57.45,1.76.2,1.8-.07,1.68-.33M1633.88,266.28l1.41-.56,1.02-.75.53-.86v-.9l-.53-.86-1.02-.75-1.41-.56-1.68-.33-1.8-.07-1.76.2-1.57.45-1.23.66-.79.82-.27.89.27.89.79.82,1.23.66,1.57.45,1.76.2,1.8-.07,1.68-.33Z"/>
  </g>
</svg>