<?xml version="1.0" encoding="UTF-8"?>
<svg id="katman_1" xmlns="http://www.w3.org/2000/svg" width="750" height="500" version="1.1" viewBox="0 0 750 500">
  <!-- Generator: Adobe Illustrator 30.4.0, SVG Export Plug-In . SVG Version: 2.1.4 Build 226)  -->
  <defs>
    <style>
      .st0 {
        fill: none;
      }

      .st0, .st1 {
        stroke: #000;
        stroke-miterlimit: 10;
        stroke-width: 3px;
      }

      .st1 {
        fill: #ff5239;
        fill-rule: evenodd;
      }
    </style>
  </defs>
  <g>
    <g>
      <g id="LINE">
        <line class="st0" x1="185.77" y1="289.31" x2="101.95" y2="216.71"/>
      </g>
      <g id="LINE1">
        <line class="st0" x1="531.76" y1="70.91" x2="528.07" y2="71.98"/>
      </g>
      <g id="LINE2">
        <line class="st0" x1="521.25" y1="85.04" x2="519.12" y2="83.19"/>
      </g>
      <g id="ARC">
        <path class="st0" d="M218.33,336.13c-.17-.26-.37-.51-.59-.74"/>
      </g>
      <g id="LINE3">
        <line class="st0" x1="183.28" y1="293.25" x2="183.28" y2="298.17"/>
      </g>
      <g id="ARC1">
        <path class="st0" d="M183.28,298.17c-.03,4.1,1.49,8.06,4.26,11.07"/>
      </g>
      <g id="LINE4">
        <line class="st0" x1="187.54" y1="309.24" x2="217.74" y2="335.39"/>
      </g>
      <g id="LINE5">
        <polyline class="st0" points="218.33 331.64 208.54 323.16 201.98 317.48 197.34 313.46 191.24 308.18"/>
      </g>
      <g id="ARC2">
        <path class="st0" d="M186.97,297.1c-.03,4.1,1.49,8.06,4.26,11.07"/>
      </g>
      <g id="ARC3">
        <path class="st0" d="M183.28,293.25c.02-.5-.37-.92-.87-.94-.12,0-.25.02-.36.06"/>
      </g>
      <g id="ARC4">
        <path class="st0" d="M182.06,288.68c.28-.11.57-.18.87-.21.2-.03.39-.04.58-.03.85.04,1.62.36,2.22.88"/>
        <path class="st0" d="M186.98,291.97v.21"/>
      </g>
      <g id="LINE6">
        <line class="st0" x1="186.97" y1="292.18" x2="186.97" y2="297.1"/>
      </g>
      <g id="ARC5">
        <path class="st0" d="M101.95,216.71c-1.05-.84-2.46-1.08-3.72-.63"/>
      </g>
      <g id="LWPOLYLINE">
        <polyline class="st0" points="527.12 74.23 527.16 73.54 527.28 72.96 527.48 72.49 527.74 72.16 528.07 71.98 528.44 71.96 528.84 72.09 529.25 72.38"/>
      </g>
      <g id="LINE7">
        <line class="st0" x1="556.6" y1="96.07" x2="529.25" y2="72.38"/>
      </g>
      <g id="LWPOLYLINE1">
        <polyline class="st0" points="556.6 96.07 557.43 96.65 558.23 96.92 558.97 96.87 559.61 96.52 560.14 95.86 560.54 94.92 560.78 93.75 560.86 92.38"/>
      </g>
      <g id="LINE8">
        <line class="st0" x1="560.87" y1="92.38" x2="560.87" y2="87.46"/>
      </g>
      <g id="LINE9">
        <line class="st0" x1="560.86" y1="87.46" x2="644.69" y2="160.05"/>
      </g>
      <g id="LINE10">
        <line class="st0" x1="527.12" y1="74.23" x2="527.12" y2="116.06"/>
      </g>
      <g id="ARC6">
        <path class="st0" d="M523.05,89.35c.12-2.99-2.21-5.5-5.2-5.62-.75-.03-1.49.1-2.18.37"/>
      </g>
      <g id="LINE11">
        <line class="st0" x1="523.05" y1="113.96" x2="523.05" y2="89.35"/>
      </g>
      <g id="LINE12">
        <line class="st0" x1="515.67" y1="84.1" x2="88.93" y2="207.19"/>
      </g>
      <g id="LINE13">
        <line class="st0" x1="513.53" y1="82.25" x2="86.94" y2="205.45"/>
      </g>
      <g id="ARC7">
        <path class="st0" d="M681.28,249.57c-.04.73-.53,1.36-1.23,1.58l-52.51,15.16-402.75,116.26c-.11.05-.24.07-.36.06-.5-.02-.89-.44-.87-.93v-41.84c.02-2.05-.74-4.03-2.13-5.53l-3.1-2.69v-12.03l-.02-.28-.13-.27-.23-.26-30.97-26.83c-.02-1.05-.5-2-1.25-2.65l-67.49-58.5,404.81-116.86c0,.68.25,1.34.71,1.85l2.13,1.84c.71-.22,1.2-.85,1.23-1.58l3.64,3.15,150.52,130.35h0Z"/>
      </g>
      <g id="ARC8">
        <path class="st0" d="M649.61,153.71c-2.81.87-4.78,3.4-4.92,6.34"/>
      </g>
      <g id="ARC9">
        <path class="st0" d="M565.78,81.11c-2.81.87-4.78,3.4-4.92,6.34"/>
      </g>
      <g id="LINE14">
        <line class="st0" x1="560.47" y1="95.15" x2="560.29" y2="95"/>
      </g>
      <g id="LINE15">
        <line class="st0" x1="560.29" y1="95" x2="532.94" y2="71.32"/>
      </g>
      <g id="ARC10">
        <path class="st0" d="M532.94,71.32c-.3-.33-.75-.48-1.18-.4"/>
      </g>
      <g id="ARC11">
        <path class="st0" d="M519.12,83.19c-1.58-1.25-3.68-1.6-5.58-.94"/>
      </g>
      <g id="LINE16">
        <line class="st0" x1="89.94" y1="219.71" x2="89.94" y2="223.4"/>
      </g>
      <g id="LINE17">
        <line class="st0" x1="657.89" y1="153.78" x2="657.89" y2="150.09"/>
      </g>
      <g id="ARC12">
        <path class="st0" d="M170.08,293.37c1.73,1.12,3.86,1.4,5.82.78"/>
      </g>
      <g id="ARC13">
        <path class="st0" d="M170.08,289.68c1.73,1.12,3.86,1.4,5.82.78"/>
      </g>
      <g id="LWPOLYLINE2">
        <polyline class="st0" points="90.51 220.77 90.17 220.39 89.98 219.98 89.95 219.57 90.09 219.16 90.38 218.76 90.82 218.41 91.4 218.1 92.07 217.86"/>
      </g>
      <g id="LINE18">
        <line class="st0" x1="98.23" y1="216.09" x2="92.07" y2="217.86"/>
      </g>
      <g id="LINE19">
        <line class="st0" x1="175.9" y1="290.46" x2="182.05" y2="288.68"/>
      </g>
      <g id="LINE20">
        <line class="st0" x1="90.51" y1="220.77" x2="170.08" y2="289.68"/>
      </g>
      <g id="LINE21">
        <line class="st0" x1="182.05" y1="292.37" x2="182.05" y2="288.68"/>
      </g>
      <g id="LINE22">
        <line class="st0" x1="175.9" y1="294.15" x2="182.05" y2="292.37"/>
      </g>
      <g id="LINE23">
        <line class="st0" x1="170.08" y1="293.37" x2="90.51" y2="224.46"/>
      </g>
      <g id="ARC14">
        <path class="st0" d="M89.94,223.4c.02.42.23.81.57,1.07"/>
      </g>
      <g id="LINE24">
        <polyline class="st0" points="650.62 157.11 652.26 156.64 655.77 155.63"/>
      </g>
      <g id="LINE25">
        <line class="st0" x1="655.76" y1="151.93" x2="649.61" y2="153.71"/>
      </g>
      <g id="LWPOLYLINE3">
        <polyline class="st0" points="657.32 149.02 657.67 149.4 657.86 149.81 657.88 150.23 657.75 150.64 657.45 151.03 657.01 151.38 656.44 151.69 655.76 151.93"/>
      </g>
      <g id="LINE26">
        <line class="st0" x1="565.78" y1="81.11" x2="571.94" y2="79.34"/>
      </g>
      <g id="ARC15">
        <path class="st0" d="M577.76,80.12c-1.73-1.12-3.86-1.4-5.82-.78"/>
      </g>
      <g id="LINE27">
        <line class="st0" x1="657.32" y1="149.02" x2="577.76" y2="80.12"/>
      </g>
      <g id="LWPOLYLINE4">
        <polyline class="st0" points="655.76 155.62 656.44 155.38 657.01 155.07 657.45 154.72 657.75 154.33 657.88 153.92 657.89 153.78"/>
      </g>
    </g>
    <g>
      <g id="LINE28">
        <line class="st0" x1="218.33" y1="319.61" x2="218.33" y2="319.51"/>
        <line class="st0" x1="218.33" y1="454.86" x2="218.33" y2="336.13"/>
      </g>
      <g id="LINE29">
        <line class="st0" x1="35.97" y1="189.23" x2="35.97" y2="324.58"/>
      </g>
      <g id="ARC16">
        <path class="st0" d="M193.34,461.25c1.15.74,2.57.93,3.88.52"/>
      </g>
      <g id="LINE30">
        <line class="st0" x1="193.34" y1="461.25" x2="193.34" y2="325.9"/>
      </g>
      <g id="ARC17">
        <path class="st0" d="M193.34,325.9c1.15.74,2.57.93,3.88.52"/>
      </g>
      <g id="LWPOLYLINE5">
        <polyline class="st0" points="216.91 320.74 217.37 320.58 217.75 320.38 218.04 320.14 218.24 319.88 218.33 319.61"/>
      </g>
      <g id="LINE31">
        <line class="st0" x1="216.91" y1="320.74" x2="197.22" y2="326.42"/>
      </g>
      <g id="LINE32">
        <line class="st0" x1="193.34" y1="325.9" x2="157.47" y2="294.83"/>
      </g>
      <g id="LINE33">
        <line class="st0" x1="182.08" y1="287.73" x2="157.47" y2="294.83"/>
      </g>
      <g id="LINE34">
        <polyline class="st0" points="186.98 291.97 183.46 288.92 183.45 288.92 182.93 288.47 182.08 287.73"/>
      </g>
      <g id="LINE35">
        <line class="st0" x1="208.76" y1="433.46" x2="207.68" y2="433.77"/>
      </g>
      <g id="ARC18">
        <path class="st0" d="M207.68,433.77c-.35.11-.6.43-.62.79"/>
      </g>
      <g id="LINE36">
        <line class="st0" x1="207.07" y1="434.56" x2="207.07" y2="442.56"/>
      </g>
      <g id="ARC19">
        <path class="st0" d="M207.07,442.56c0,.25.18.46.43.47.06,0,.12,0,.18-.03"/>
      </g>
      <g id="LINE37">
        <line class="st0" x1="207.68" y1="443" x2="215.68" y2="440.69"/>
      </g>
      <g id="ARC20">
        <path class="st0" d="M215.68,440.69c.35-.11.6-.43.62-.79"/>
      </g>
      <g id="LINE38">
        <line class="st0" x1="216.29" y1="439.9" x2="216.29" y2="438.82"/>
      </g>
      <g id="ARC21">
        <path class="st0" d="M216.29,438.82c0-.25-.18-.46-.43-.47-.06,0-.12,0-.18.03"/>
      </g>
      <g id="LINE39">
        <line class="st0" x1="215.68" y1="438.38" x2="210.53" y2="439.87"/>
      </g>
      <g id="LINE40">
        <line class="st0" x1="210.53" y1="439.87" x2="209.37" y2="439.05"/>
      </g>
      <g id="LINE41">
        <line class="st0" x1="209.37" y1="439.05" x2="209.37" y2="433.9"/>
      </g>
      <g id="ARC22">
        <path class="st0" d="M209.37,433.9c0-.25-.18-.46-.43-.47-.06,0-.12,0-.18.03"/>
      </g>
      <g id="LINE42">
        <line class="st0" x1="216.91" y1="456.08" x2="197.22" y2="461.77"/>
      </g>
      <g id="LINE43">
        <line class="st0" x1="205.37" y1="452.89" x2="206.45" y2="452.58"/>
      </g>
      <g id="ARC23">
        <path class="st0" d="M206.45,452.58c.35-.11.6-.43.62-.79"/>
      </g>
      <g id="LINE44">
        <line class="st0" x1="207.07" y1="451.79" x2="207.07" y2="445.48"/>
      </g>
      <g id="ARC24">
        <path class="st0" d="M207.07,445.48c.03-.93-.69-1.72-1.63-1.76-.23,0-.46.03-.68.11"/>
      </g>
      <g id="LINE45">
        <line class="st0" x1="204.76" y1="443.84" x2="198.45" y2="445.66"/>
      </g>
      <g id="ARC25">
        <path class="st0" d="M198.45,445.66c-.35.11-.6.43-.62.79"/>
      </g>
      <g id="LINE46">
        <line class="st0" x1="197.84" y1="446.46" x2="197.84" y2="447.53"/>
      </g>
      <g id="ARC26">
        <path class="st0" d="M197.84,447.53c0,.25.18.46.43.47.06,0,.12,0,.18-.03"/>
      </g>
      <g id="LINE47">
        <line class="st0" x1="198.45" y1="447.97" x2="203.61" y2="446.48"/>
      </g>
      <g id="ARC27">
        <path class="st0" d="M204.76,447.3c.02-.47-.34-.86-.81-.88-.12,0-.24.01-.35.06"/>
      </g>
      <g id="LINE48">
        <line class="st0" x1="204.76" y1="447.3" x2="204.76" y2="452.46"/>
      </g>
      <g id="ARC28">
        <path class="st0" d="M204.76,452.46c0,.25.18.46.43.47.06,0,.12,0,.18-.03"/>
      </g>
      <g id="LINE49">
        <line class="st0" x1="193.34" y1="461.25" x2="36.35" y2="325.29"/>
      </g>
      <g id="LINE50">
        <line class="st0" x1="72.22" y1="221.01" x2="36.35" y2="189.94"/>
      </g>
      <g id="LINE51">
        <line class="st0" x1="72.22" y1="227.16" x2="72.22" y2="221.01"/>
      </g>
      <g id="LINE52">
        <line class="st0" x1="72.22" y1="227.16" x2="157.47" y2="300.99"/>
      </g>
      <g id="LINE53">
        <line class="st0" x1="157.47" y1="300.99" x2="157.47" y2="294.83"/>
      </g>
      <g id="LWPOLYLINE6">
        <polyline class="st0" points="218.33 454.85 218.32 454.95 218.23 455.22 218.04 455.48 217.74 455.72 217.36 455.92 216.91 456.08"/>
      </g>
      <g id="LINE54">
        <line class="st0" x1="96.83" y1="220.06" x2="72.22" y2="227.16"/>
      </g>
      <g id="LINE55">
        <line class="st0" x1="96.83" y1="220.06" x2="176.75" y2="289.27"/>
      </g>
      <g id="LINE56">
        <line class="st0" x1="72.22" y1="221.01" x2="96.83" y2="213.91"/>
      </g>
      <g id="LINE57">
        <line class="st0" x1="96.83" y1="213.91" x2="96.83" y2="220.06"/>
      </g>
      <g id="LWPOLYLINE7">
        <polyline class="st0" points="36.35 189.94 36.12 189.69 35.99 189.42 35.97 189.14 36.06 188.86 36.26 188.6 36.55 188.37 36.94 188.16 37.39 188"/>
      </g>
      <g id="LINE58">
        <line class="st0" x1="37.39" y1="188" x2="57.07" y2="182.32"/>
      </g>
      <g id="ARC29">
        <path class="st0" d="M60.96,182.84c-1.15-.74-2.57-.93-3.88-.52"/>
      </g>
      <g id="LINE59">
        <line class="st0" x1="60.96" y1="182.84" x2="96.83" y2="213.91"/>
      </g>
      <g id="ARC30">
        <path class="st0" d="M35.97,324.58c0,.28.15.54.38.71"/>
      </g>
      <g id="LWPOLYLINE8">
        <polyline class="st0" points="193.88 317.13 193.38 316.53 193.21 315.89 193.38 315.25 193.88 314.65 194.67 314.13 195.7 313.74 196.9 313.49 198.19 313.4 199.47 313.49 200.67 313.74 201.7 314.13 202.49 314.65 202.99 315.25 203.16 315.89 202.99 316.53 202.49 317.13 201.7 317.65 200.67 318.04 199.47 318.29 198.19 318.38 196.9 318.29 195.7 318.04 194.67 317.65 193.88 317.13"/>
      </g>
      <g id="LWPOLYLINE9">
        <polyline class="st0" points="51.8 194.09 51.31 193.49 51.14 192.85 51.31 192.21 51.8 191.61 52.59 191.09 53.62 190.7 54.82 190.45 56.11 190.36 57.4 190.45 58.6 190.7 59.63 191.09 60.42 191.61 60.91 192.21 61.08 192.85 60.91 193.49 60.42 194.09 59.63 194.61 58.6 195 57.4 195.25 56.11 195.34 54.82 195.25 53.62 195 52.59 194.61 51.8 194.09"/>
      </g>
      <g id="HATCH1">
        <path class="st1" d="M193.88,317.13l-.5-.6-.17-.64.17-.64.5-.6.79-.51,1.03-.4,1.2-.25,1.29-.08,1.29.08,1.2.25,1.03.4.79.51.5.6.17.64-.17.64-.5.6-.79.51-1.03.4-1.2.25-1.29.08-1.29-.08-1.2-.25-1.03-.4-.79-.51h0ZM51.8,194.09l-.5-.6-.17-.64.17-.64.5-.6.79-.51,1.03-.4,1.2-.25,1.29-.08,1.29.08,1.2.25,1.03.4.79.51.5.6.17.64-.17.64-.5.6-.79.51-1.03.4-1.2.25-1.29.08-1.29-.08-1.2-.25-1.03-.4-.79-.51Z"/>
      </g>
    </g>
    <g>
      <g id="LINE60">
        <line class="st0" x1="714.06" y1="310.77" x2="714.06" y2="175.42"/>
      </g>
      <g id="LINE61">
        <polyline class="st0" points="531.69 117.59 531.69 72.06 531.69 69.58 531.69 45.15"/>
      </g>
      <g id="ARC31">
        <path class="st0" d="M689.07,317.16c1.15.74,2.57.93,3.88.52"/>
      </g>
      <g id="LINE62">
        <path class="st0" d="M685.9,205.04v41.83c-.15,2.94-2.11,5.47-4.92,6.34l-49.32,14.24-405.94,117.18c-.46.18-.96.27-1.45.25-2-.08-3.55-1.76-3.47-3.75v-41.83c.02-1.73-.52-3.41-1.54-4.8v-4.49l3.1,2.69c1.39,1.5,2.15,3.48,2.13,5.53v41.84c-.02.49.37.91.87.93.12.01.25,0,.36-.06l402.75-116.26,52.51-15.16c.7-.22,1.19-.85,1.23-1.58v-41.84c.01-2.05-.75-4.03-2.13-5.54l-30.2-26.14c-2.77-3.02-4.29-6.98-4.26-11.08v-4.92l3.75-4.83,2.18,1.89-1.01.29c-.7.22-1.19.85-1.23,1.59v4.92c-.03,4.1,1.49,8.06,4.27,11.07l30.19,26.15c1.38,1.51,2.15,3.49,2.13,5.54h0Z"/>
        <line class="st0" x1="689.07" y1="317.16" x2="689.07" y2="181.82"/>
      </g>
      <g id="ARC32">
        <path class="st0" d="M689.07,181.82c1.15.74,2.57.93,3.88.52"/>
      </g>
      <g id="LWPOLYLINE10">
        <polyline class="st0" points="713.68 174.71 713.91 174.97 714.03 175.24 714.05 175.52 713.96 175.79 713.76 176.05 713.47 176.29 713.09 176.49 712.64 176.65"/>
      </g>
      <g id="LINE63">
        <line class="st0" x1="712.64" y1="176.65" x2="692.95" y2="182.34"/>
      </g>
      <g id="LINE64">
        <line class="st0" x1="689.07" y1="181.82" x2="653.19" y2="150.75"/>
      </g>
      <g id="LINE65">
        <line class="st0" x1="677.8" y1="143.65" x2="653.19" y2="150.75"/>
      </g>
      <g id="LINE66">
        <line class="st0" x1="677.8" y1="143.65" x2="713.68" y2="174.71"/>
      </g>
      <g id="LINE67">
        <line class="st0" x1="704.48" y1="289.38" x2="703.41" y2="289.69"/>
      </g>
      <g id="ARC33">
        <path class="st0" d="M703.41,289.69c-.35.11-.6.43-.62.79"/>
      </g>
      <g id="LINE68">
        <line class="st0" x1="702.79" y1="290.48" x2="702.79" y2="298.48"/>
      </g>
      <g id="ARC34">
        <path class="st0" d="M702.79,298.48c0,.25.18.46.43.47.06,0,.12,0,.18-.03"/>
      </g>
      <g id="LINE69">
        <line class="st0" x1="703.41" y1="298.91" x2="711.41" y2="296.61"/>
      </g>
      <g id="ARC35">
        <path class="st0" d="M711.41,296.61c.35-.11.6-.43.62-.79"/>
      </g>
      <g id="LINE70">
        <line class="st0" x1="712.02" y1="295.81" x2="712.02" y2="294.74"/>
      </g>
      <g id="ARC36">
        <path class="st0" d="M712.02,294.74c0-.25-.18-.46-.43-.47-.06,0-.12,0-.18.03"/>
      </g>
      <g id="LINE71">
        <line class="st0" x1="711.41" y1="294.3" x2="706.25" y2="295.79"/>
      </g>
      <g id="LINE72">
        <line class="st0" x1="706.25" y1="295.79" x2="705.1" y2="294.97"/>
      </g>
      <g id="LINE73">
        <line class="st0" x1="705.1" y1="294.97" x2="705.1" y2="289.81"/>
      </g>
      <g id="ARC37">
        <path class="st0" d="M705.1,289.81c0-.25-.18-.46-.43-.47-.06,0-.12,0-.18.03"/>
      </g>
      <g id="LINE74">
        <line class="st0" x1="712.64" y1="312" x2="692.95" y2="317.68"/>
      </g>
      <g id="LINE75">
        <line class="st0" x1="701.1" y1="308.81" x2="702.18" y2="308.5"/>
      </g>
      <g id="ARC38">
        <path class="st0" d="M702.18,308.5c.35-.11.6-.43.62-.79"/>
      </g>
      <g id="LINE76">
        <line class="st0" x1="702.79" y1="307.7" x2="702.79" y2="301.4"/>
      </g>
      <g id="ARC39">
        <path class="st0" d="M702.79,301.4c.03-.93-.69-1.72-1.63-1.76-.23,0-.46.03-.68.11"/>
      </g>
      <g id="LINE77">
        <line class="st0" x1="700.49" y1="299.76" x2="694.18" y2="301.58"/>
      </g>
      <g id="ARC40">
        <path class="st0" d="M694.18,301.58c-.35.11-.6.43-.62.79"/>
      </g>
      <g id="LINE78">
        <line class="st0" x1="693.56" y1="302.37" x2="693.56" y2="303.45"/>
      </g>
      <g id="ARC41">
        <path class="st0" d="M693.56,303.45c0,.25.18.46.43.47.06,0,.12,0,.18-.03"/>
      </g>
      <g id="LINE79">
        <line class="st0" x1="694.18" y1="303.89" x2="699.33" y2="302.4"/>
      </g>
      <g id="ARC42">
        <path class="st0" d="M700.49,303.22c.02-.47-.34-.86-.81-.88-.12,0-.24.01-.35.06"/>
      </g>
      <g id="LINE80">
        <line class="st0" x1="700.49" y1="303.22" x2="700.49" y2="308.37"/>
      </g>
      <g id="ARC43">
        <path class="st0" d="M700.49,308.37c0,.25.18.46.43.47.06,0,.12,0,.18-.03"/>
      </g>
      <g id="LINE81">
        <line class="st0" x1="689.07" y1="317.16" x2="631.66" y2="267.45"/>
      </g>
      <g id="LINE82">
        <line class="st0" x1="567.95" y1="76.92" x2="532.07" y2="45.86"/>
      </g>
      <g id="LINE83">
        <line class="st0" x1="567.95" y1="83.08" x2="567.95" y2="76.92"/>
      </g>
      <g id="LINE84">
        <line class="st0" x1="653.19" y1="156.9" x2="651.55" y2="155.48"/>
        <polyline class="st0" points="649.37 153.59 648.67 152.99 567.95 83.08"/>
      </g>
      <g id="LINE85">
        <line class="st0" x1="653.19" y1="156.9" x2="653.19" y2="150.75"/>
      </g>
      <g id="LWPOLYLINE11">
        <polyline class="st0" points="714.06 310.77 714.05 310.86 713.96 311.14 713.76 311.4 713.47 311.63 713.09 311.84 712.64 312"/>
      </g>
      <g id="LINE86">
        <line class="st0" x1="592.56" y1="75.97" x2="567.95" y2="83.08"/>
      </g>
      <g id="LINE87">
        <line class="st0" x1="592.56" y1="75.97" x2="672.47" y2="145.18"/>
      </g>
      <g id="LINE88">
        <line class="st0" x1="567.95" y1="76.92" x2="592.56" y2="69.82"/>
      </g>
      <g id="LINE89">
        <line class="st0" x1="592.56" y1="69.82" x2="592.56" y2="75.97"/>
      </g>
      <g id="LWPOLYLINE12">
        <polyline class="st0" points="532.07 45.86 531.84 45.6 531.72 45.33 531.7 45.05 531.79 44.78 531.99 44.52 532.28 44.28 532.66 44.08 533.11 43.92"/>
      </g>
      <g id="LINE90">
        <line class="st0" x1="533.11" y1="43.92" x2="552.8" y2="38.23"/>
      </g>
      <g id="ARC44">
        <path class="st0" d="M556.68,38.75c-1.15-.74-2.57-.93-3.88-.52"/>
      </g>
      <g id="LINE91">
        <line class="st0" x1="556.68" y1="38.75" x2="592.56" y2="69.82"/>
      </g>
      <g id="LWPOLYLINE13">
        <polyline class="st0" points="689.61 173.05 689.11 172.45 688.94 171.81 689.11 171.16 689.61 170.56 690.4 170.05 691.43 169.65 692.63 169.4 693.91 169.32 695.2 169.4 696.4 169.65 697.43 170.05 698.22 170.56 698.72 171.16 698.89 171.81 698.72 172.45 698.22 173.05 697.43 173.56 696.4 173.96 695.2 174.21 693.91 174.29 692.63 174.21 691.43 173.96 690.4 173.56 689.61 173.05"/>
      </g>
      <g id="LWPOLYLINE14">
        <polyline class="st0" points="547.53 50.01 547.03 49.41 546.86 48.76 547.03 48.12 547.53 47.52 548.32 47.01 549.35 46.61 550.55 46.36 551.84 46.28 553.12 46.36 554.32 46.61 555.35 47.01 556.14 47.52 556.64 48.12 556.81 48.76 556.64 49.41 556.14 50.01 555.35 50.52 554.32 50.92 553.12 51.17 551.84 51.25 550.55 51.17 549.35 50.92 548.32 50.52 547.53 50.01"/>
      </g>
    </g>
  </g>
  <g>
    <g id="LINE92">
      <line class="st0" x1="218.31" y1="454.85" x2="218.31" y2="319.51"/>
    </g>
    <g id="LINE93">
      <line class="st0" x1="35.94" y1="189.23" x2="35.94" y2="324.58"/>
    </g>
    <g id="ARC45">
      <path class="st0" d="M193.32,461.25c1.15.74,2.57.93,3.88.52"/>
    </g>
    <g id="LINE94">
      <line class="st0" x1="193.32" y1="461.25" x2="193.32" y2="325.9"/>
    </g>
    <g id="ARC46">
      <path class="st0" d="M193.32,325.9c1.15.74,2.57.93,3.88.52"/>
    </g>
    <g id="LWPOLYLINE15">
      <polyline class="st0" points="217.93 318.8 218.16 319.05 218.28 319.32 218.3 319.6 218.21 319.88 218.01 320.14 217.72 320.37 217.34 320.58 216.89 320.74"/>
    </g>
    <g id="LINE95">
      <line class="st0" x1="216.89" y1="320.74" x2="197.2" y2="326.42"/>
    </g>
    <g id="LINE96">
      <line class="st0" x1="193.32" y1="325.9" x2="157.44" y2="294.83"/>
    </g>
    <g id="LINE97">
      <line class="st0" x1="182.05" y1="287.73" x2="157.44" y2="294.83"/>
    </g>
    <g id="LINE98">
      <line class="st0" x1="182.05" y1="287.73" x2="217.93" y2="318.8"/>
    </g>
    <g id="LINE99">
      <line class="st0" x1="208.73" y1="433.46" x2="207.66" y2="433.77"/>
    </g>
    <g id="ARC47">
      <path class="st0" d="M207.66,433.77c-.35.11-.6.43-.62.79"/>
    </g>
    <g id="LINE100">
      <line class="st0" x1="207.04" y1="434.56" x2="207.04" y2="442.56"/>
    </g>
    <g id="ARC48">
      <path class="st0" d="M207.04,442.56c0,.25.18.46.43.47.06,0,.12,0,.18-.03"/>
    </g>
    <g id="LINE101">
      <line class="st0" x1="207.66" y1="443" x2="215.66" y2="440.69"/>
    </g>
    <g id="ARC49">
      <path class="st0" d="M215.66,440.69c.35-.11.6-.43.62-.79"/>
    </g>
    <g id="LINE102">
      <line class="st0" x1="216.27" y1="439.9" x2="216.27" y2="438.82"/>
    </g>
    <g id="ARC50">
      <path class="st0" d="M216.27,438.82c0-.25-.18-.46-.43-.47-.06,0-.12,0-.18.03"/>
    </g>
    <g id="LINE103">
      <line class="st0" x1="215.66" y1="438.38" x2="210.5" y2="439.87"/>
    </g>
    <g id="LINE104">
      <line class="st0" x1="210.5" y1="439.87" x2="209.35" y2="439.05"/>
    </g>
    <g id="LINE105">
      <line class="st0" x1="209.35" y1="439.05" x2="209.35" y2="433.9"/>
    </g>
    <g id="ARC51">
      <path class="st0" d="M209.35,433.9c0-.25-.18-.46-.43-.47-.06,0-.12,0-.18.03"/>
    </g>
    <g id="LINE106">
      <line class="st0" x1="216.89" y1="456.08" x2="197.2" y2="461.77"/>
    </g>
    <g id="LINE107">
      <line class="st0" x1="205.35" y1="452.89" x2="206.43" y2="452.58"/>
    </g>
    <g id="ARC52">
      <path class="st0" d="M206.43,452.58c.35-.11.6-.43.62-.79"/>
    </g>
    <g id="LINE108">
      <line class="st0" x1="207.04" y1="451.79" x2="207.04" y2="445.48"/>
    </g>
    <g id="ARC53">
      <path class="st0" d="M207.04,445.48c.03-.93-.69-1.72-1.63-1.76-.23,0-.46.03-.68.11"/>
    </g>
    <g id="LINE109">
      <line class="st0" x1="204.74" y1="443.84" x2="198.43" y2="445.66"/>
    </g>
    <g id="ARC54">
      <path class="st0" d="M198.43,445.66c-.35.11-.6.43-.62.79"/>
    </g>
    <g id="LINE110">
      <line class="st0" x1="197.81" y1="446.46" x2="197.81" y2="447.53"/>
    </g>
    <g id="ARC55">
      <path class="st0" d="M197.81,447.53c0,.25.18.46.43.47.06,0,.12,0,.18-.03"/>
    </g>
    <g id="LINE111">
      <line class="st0" x1="198.43" y1="447.97" x2="203.58" y2="446.48"/>
    </g>
    <g id="ARC56">
      <path class="st0" d="M204.74,447.3c.02-.47-.34-.86-.81-.88-.12,0-.24.01-.35.06"/>
    </g>
    <g id="LINE112">
      <line class="st0" x1="204.74" y1="447.3" x2="204.74" y2="452.46"/>
    </g>
    <g id="ARC57">
      <path class="st0" d="M204.74,452.46c0,.25.18.46.43.47.06,0,.12,0,.18-.03"/>
    </g>
    <g id="LINE113">
      <line class="st0" x1="193.32" y1="461.25" x2="36.32" y2="325.29"/>
    </g>
    <g id="LINE114">
      <line class="st0" x1="72.2" y1="221.01" x2="36.32" y2="189.94"/>
    </g>
    <g id="LINE115">
      <line class="st0" x1="72.2" y1="227.16" x2="72.2" y2="221.01"/>
    </g>
    <g id="LINE116">
      <line class="st0" x1="72.2" y1="227.16" x2="157.44" y2="300.99"/>
    </g>
    <g id="LINE117">
      <line class="st0" x1="157.44" y1="300.99" x2="157.44" y2="294.83"/>
    </g>
    <g id="LWPOLYLINE16">
      <polyline class="st0" points="218.31 454.85 218.3 454.95 218.21 455.22 218.01 455.48 217.72 455.72 217.34 455.92 216.89 456.08"/>
    </g>
    <g id="LINE118">
      <line class="st0" x1="96.81" y1="220.06" x2="72.2" y2="227.16"/>
    </g>
    <g id="LINE119">
      <line class="st0" x1="96.81" y1="220.06" x2="176.72" y2="289.27"/>
    </g>
    <g id="LINE120">
      <line class="st0" x1="72.2" y1="221.01" x2="96.81" y2="213.91"/>
    </g>
    <g id="LINE121">
      <line class="st0" x1="96.81" y1="213.91" x2="96.81" y2="220.06"/>
    </g>
    <g id="LWPOLYLINE17">
      <polyline class="st0" points="36.32 189.94 36.09 189.69 35.97 189.42 35.95 189.14 36.04 188.86 36.24 188.6 36.53 188.37 36.91 188.16 37.36 188"/>
    </g>
    <g id="LINE122">
      <line class="st0" x1="37.36" y1="188" x2="57.05" y2="182.32"/>
    </g>
    <g id="ARC58">
      <path class="st0" d="M60.93,182.84c-1.15-.74-2.57-.93-3.88-.52"/>
    </g>
    <g id="LINE123">
      <line class="st0" x1="60.93" y1="182.84" x2="96.81" y2="213.91"/>
    </g>
    <g id="ARC59">
      <path class="st0" d="M35.94,324.58c0,.28.15.54.38.71"/>
    </g>
    <g id="LWPOLYLINE18">
      <polyline class="st0" points="193.86 317.13 193.36 316.53 193.19 315.89 193.36 315.25 193.86 314.65 194.65 314.13 195.68 313.74 196.88 313.49 198.16 313.4 199.45 313.49 200.65 313.74 201.68 314.13 202.47 314.65 202.97 315.25 203.14 315.89 202.97 316.53 202.47 317.13 201.68 317.65 200.65 318.04 199.45 318.29 198.16 318.38 196.88 318.29 195.68 318.04 194.65 317.65 193.86 317.13"/>
    </g>
    <g id="LWPOLYLINE19">
      <polyline class="st0" points="51.78 194.09 51.28 193.49 51.11 192.85 51.28 192.21 51.78 191.61 52.57 191.09 53.6 190.7 54.8 190.45 56.09 190.36 57.37 190.45 58.57 190.7 59.6 191.09 60.39 191.61 60.89 192.21 61.06 192.85 60.89 193.49 60.39 194.09 59.6 194.61 58.57 195 57.37 195.25 56.09 195.34 54.8 195.25 53.6 195 52.57 194.61 51.78 194.09"/>
    </g>
    <g id="HATCH3">
      <path class="st1" d="M193.86,317.13l-.5-.6-.17-.64.17-.64.5-.6.79-.51,1.03-.4,1.2-.25,1.29-.08,1.29.08,1.2.25,1.03.4.79.51.5.6.17.64-.17.64-.5.6-.79.51-1.03.4-1.2.25-1.29.08-1.29-.08-1.2-.25-1.03-.4-.79-.51M51.78,194.09l-.5-.6-.17-.64.17-.64.5-.6.79-.51,1.03-.4,1.2-.25,1.29-.08,1.29.08,1.2.25,1.03.4.79.51.5.6.17.64-.17.64-.5.6-.79.51-1.03.4-1.2.25-1.29.08-1.29-.08-1.2-.25-1.03-.4-.79-.51Z"/>
    </g>
  </g>
</svg>