<?xml version="1.0" encoding="UTF-8"?>
<svg id="katman_1" xmlns="http://www.w3.org/2000/svg" width="750" height="500" version="1.1" viewBox="0 0 750 500">
  <!-- Generator: Adobe Illustrator 30.4.0, SVG Export Plug-In . SVG Version: 2.1.4 Build 226)  -->
  <defs>
    <style>
      .st0 {
        fill: none;
        stroke: #020202;
        stroke-miterlimit: 10;
        stroke-width: 3px;
      }
    </style>
  </defs>
  <g id="LINE">
    <line class="st0" x1="421.43" y1="317.89" x2="419.93" y2="313.97"/>
  </g>
  <g id="LINE1">
    <line class="st0" x1="397.62" y1="329.68" x2="413.01" y2="325.27"/>
  </g>
  <g id="LINE2">
    <line class="st0" x1="467.57" y1="304.57" x2="466.07" y2="300.65"/>
  </g>
  <g id="LINE3">
    <line class="st0" x1="443.74" y1="316.36" x2="459.15" y2="311.95"/>
  </g>
  <g id="LINE4">
    <line class="st0" x1="358.75" y1="170.31" x2="297.23" y2="188.07"/>
  </g>
  <g id="LINE5">
    <line class="st0" x1="282.71" y1="220.22" x2="284.55" y2="223.66"/>
  </g>
  <g id="LINE6">
    <line class="st0" x1="315.01" y1="206.26" x2="314.66" y2="205.61"/>
  </g>
  <g id="ARC">
    <path class="st0" d="M409.46,316.51c-1.85.49-3.61,1.29-5.2,2.37"/>
  </g>
  <g id="ARC1">
    <path class="st0" d="M410.96,320.42c-1.85.49-3.61,1.29-5.2,2.37"/>
  </g>
  <g id="LWPOLYLINE">
    <polyline class="st0" points="421.15 318.35 421.37 318.12 421.44 317.94 421.36 317.81 421.13 317.74 420.76 317.74 420.26 317.81 419.65 317.93 418.96 318.11"/>
  </g>
  <g id="LINE7">
    <line class="st0" x1="413.44" y1="325.03" x2="421.15" y2="318.35"/>
  </g>
  <g id="LINE8">
    <line class="st0" x1="405.77" y1="322.79" x2="398.06" y2="329.47"/>
  </g>
  <g id="LINE9">
    <line class="st0" x1="418.96" y1="318.11" x2="410.96" y2="320.42"/>
  </g>
  <g id="LINE10">
    <line class="st0" x1="417.46" y1="314.2" x2="409.46" y2="316.51"/>
  </g>
  <g id="LINE11">
    <line class="st0" x1="404.26" y1="318.88" x2="396.55" y2="325.55"/>
  </g>
  <g id="ARC2">
    <path class="st0" d="M419.93,313.97c-.82-.26-1.71-.18-2.47.23"/>
  </g>
  <g id="ARC3">
    <path class="st0" d="M396.05,329.17c.49.61,1.37.74,2.01.3"/>
  </g>
  <g id="ARC4">
    <path class="st0" d="M396.05,325.48c.12.15.34.19.5.07"/>
  </g>
  <g id="ARC5">
    <path class="st0" d="M455.6,303.19c-1.85.49-3.61,1.29-5.2,2.37"/>
  </g>
  <g id="ARC6">
    <path class="st0" d="M457.1,307.1c-1.85.49-3.61,1.29-5.2,2.37"/>
  </g>
  <g id="ARC7">
    <path class="st0" d="M413.01,325.27c.16-.05.31-.13.43-.24"/>
  </g>
  <g id="LINE12">
    <line class="st0" x1="451.91" y1="309.47" x2="444.2" y2="316.15"/>
  </g>
  <g id="LINE13">
    <line class="st0" x1="465.1" y1="304.79" x2="457.1" y2="307.1"/>
  </g>
  <g id="LWPOLYLINE1">
    <polyline class="st0" points="467.29 305.03 467.51 304.8 467.58 304.62 467.5 304.49 467.27 304.42 466.9 304.42 466.4 304.49 465.79 304.61 465.1 304.79"/>
  </g>
  <g id="LINE14">
    <line class="st0" x1="459.58" y1="311.71" x2="467.29" y2="305.03"/>
  </g>
  <g id="LINE15">
    <line class="st0" x1="375.59" y1="309.64" x2="346.19" y2="233.28"/>
  </g>
  <g id="LINE16">
    <line class="st0" x1="377.09" y1="308.34" x2="347.7" y2="231.97"/>
  </g>
  <g id="ARC8">
    <path class="st0" d="M409.58,259.56c-.76-2.13-2.99-3.36-5.2-2.85"/>
  </g>
  <g id="LINE17">
    <line class="st0" x1="404.39" y1="256.71" x2="381.01" y2="263.46"/>
  </g>
  <g id="ARC9">
    <path class="st0" d="M381.01,263.46c-1.91.62-2.96,2.68-2.34,4.59.04.13.09.26.15.39"/>
  </g>
  <g id="LINE18">
    <line class="st0" x1="378.82" y1="268.44" x2="392.47" y2="303.9"/>
  </g>
  <g id="LINE19">
    <line class="st0" x1="409.22" y1="214.22" x2="438.61" y2="290.58"/>
  </g>
  <g id="LINE20">
    <line class="st0" x1="423.23" y1="295.02" x2="409.58" y2="259.56"/>
  </g>
  <g id="LINE21">
    <line class="st0" x1="463.6" y1="300.88" x2="455.6" y2="303.19"/>
  </g>
  <g id="LINE22">
    <line class="st0" x1="396.05" y1="329.17" x2="378.1" y2="313.62"/>
  </g>
  <g id="LINE23">
    <line class="st0" x1="396.05" y1="325.48" x2="378.1" y2="309.93"/>
  </g>
  <g id="LINE24">
    <line class="st0" x1="393.48" y1="305.49" x2="407.14" y2="317.32"/>
  </g>
  <g id="LINE25">
    <line class="st0" x1="450.4" y1="305.56" x2="442.69" y2="312.23"/>
  </g>
  <g id="ARC10">
    <path class="st0" d="M466.07,300.65c-.82-.26-1.71-.18-2.47.23"/>
  </g>
  <g id="ARC11">
    <path class="st0" d="M442.19,315.85c.49.61,1.37.74,2.01.3"/>
  </g>
  <g id="ARC12">
    <path class="st0" d="M442.19,312.16c.12.15.34.19.5.07"/>
  </g>
  <g id="ARC13">
    <path class="st0" d="M459.15,311.95c.16-.05.31-.13.43-.24"/>
  </g>
  <g id="LINE26">
    <line class="st0" x1="442.19" y1="315.85" x2="424.24" y2="300.3"/>
  </g>
  <g id="LINE27">
    <line class="st0" x1="442.19" y1="312.16" x2="424.24" y2="296.61"/>
  </g>
  <g id="LINE28">
    <line class="st0" x1="439.62" y1="292.17" x2="453.28" y2="304"/>
  </g>
  <g id="ARC14">
    <path class="st0" d="M392.47,303.9c.21.6.55,1.15,1,1.59"/>
  </g>
  <g id="ARC15">
    <path class="st0" d="M377.09,308.34c.21.6.55,1.15,1,1.59"/>
  </g>
  <g id="ARC16">
    <path class="st0" d="M375.59,309.64c.52,1.5,1.38,2.86,2.51,3.98"/>
  </g>
  <g id="LINE29">
    <line class="st0" x1="421.73" y1="296.33" x2="408.08" y2="260.86"/>
  </g>
  <g id="LINE30">
    <line class="st0" x1="379.5" y1="264.76" x2="379.07" y2="264.92"/>
  </g>
  <g id="ARC17">
    <path class="st0" d="M409.22,214.22c-.41-1.2-1.1-2.29-2.01-3.18"/>
  </g>
  <g id="ARC18">
    <path class="st0" d="M347.7,231.97c-.41-1.2-1.1-2.29-2.01-3.18"/>
  </g>
  <g id="ARC19">
    <path class="st0" d="M346.19,233.28c-.1-.3-.28-.57-.5-.8"/>
  </g>
  <g id="LINE31">
    <line class="st0" x1="345.69" y1="228.79" x2="299.59" y2="188.87"/>
  </g>
  <g id="LINE32">
    <line class="st0" x1="345.69" y1="232.48" x2="299.59" y2="192.56"/>
  </g>
  <g id="LINE33">
    <line class="st0" x1="361.11" y1="171.11" x2="407.21" y2="211.03"/>
  </g>
  <g id="LINE34">
    <line class="st0" x1="402.88" y1="258.02" x2="379.5" y2="264.76"/>
  </g>
  <g id="ARC20">
    <path class="st0" d="M438.61,290.58c.21.6.55,1.15,1,1.59"/>
  </g>
  <g id="ARC21">
    <path class="st0" d="M423.23,295.02c.21.6.55,1.15,1,1.59"/>
  </g>
  <g id="ARC22">
    <path class="st0" d="M421.73,296.33c.52,1.5,1.38,2.86,2.51,3.98"/>
  </g>
  <g id="ARC23">
    <path class="st0" d="M408.08,260.86c-.76-2.13-2.99-3.36-5.2-2.85"/>
  </g>
  <g id="LWPOLYLINE2">
    <polyline class="st0" points="299.59 188.87 299.04 188.45 298.49 188.17 297.96 188.02 297.46 188.02 297 188.15 296.58 188.42 296.21 188.83 295.9 189.37"/>
  </g>
  <g id="ARC24">
    <path class="st0" d="M361.11,171.11c-.6-.65-1.49-.95-2.36-.81"/>
  </g>
  <g id="LWPOLYLINE3">
    <polyline class="st0" points="299.59 192.56 299.32 192.35 299.04 192.21 298.78 192.14 298.53 192.14 298.3 192.2 298.09 192.34 297.9 192.54 297.75 192.81"/>
  </g>
  <g id="LINE35">
    <line class="st0" x1="284.77" y1="220.5" x2="297.75" y2="192.81"/>
  </g>
  <g id="LINE36">
    <line class="st0" x1="282.93" y1="217.06" x2="295.9" y2="189.37"/>
  </g>
  <g id="LWPOLYLINE4">
    <polyline class="st0" points="284.77 220.5 284.31 221.91 284.35 223.13 284.87 224.12 285.86 224.82 287.29 225.23 289.09 225.31 291.19 225.08 293.52 224.53"/>
  </g>
  <g id="LINE37">
    <line class="st0" x1="325.76" y1="215.23" x2="293.52" y2="224.53"/>
  </g>
  <g id="LINE38">
    <line class="st0" x1="305.93" y1="198.05" x2="301.69" y2="207.1"/>
  </g>
  <g id="LWPOLYLINE5">
    <polyline class="st0" points="304.32 208.31 303.62 208.47 302.99 208.54 302.45 208.52 302.02 208.39 301.72 208.18 301.57 207.89 301.56 207.52 301.69 207.1"/>
  </g>
  <g id="LINE39">
    <line class="st0" x1="304.32" y1="208.31" x2="312.32" y2="206"/>
  </g>
  <g id="LWPOLYLINE6">
    <polyline class="st0" points="314.94 207.21 315.08 206.78 315.07 206.42 314.91 206.12 314.61 205.91 314.19 205.79 313.65 205.76 313.02 205.83 312.32 206"/>
  </g>
  <g id="LINE40">
    <line class="st0" x1="314.94" y1="207.21" x2="313.17" y2="211"/>
  </g>
  <g id="LWPOLYLINE7">
    <polyline class="st0" points="314.92 211.8 314.45 211.91 314.03 211.96 313.67 211.94 313.38 211.86 313.19 211.72 313.08 211.52 313.07 211.28 313.17 211"/>
  </g>
  <g id="LINE41">
    <line class="st0" x1="314.92" y1="211.8" x2="316.15" y2="211.45"/>
  </g>
  <g id="ARC25">
    <path class="st0" d="M316.15,211.45c1.18-.32,2.23-1,3.01-1.95"/>
  </g>
  <g id="LINE42">
    <line class="st0" x1="310.47" y1="202.55" x2="302.78" y2="204.77"/>
  </g>
  <g id="ARC26">
    <path class="st0" d="M282.93,217.06c-.59.95-.67,2.13-.22,3.16"/>
  </g>
  <g id="LINE43">
    <line class="st0" x1="310.47" y1="202.55" x2="310.98" y2="202.43"/>
  </g>
  <g id="ARC27">
    <path class="st0" d="M314.62,207.9c.6-.21,1.16-.51,1.68-.88"/>
  </g>
  <g id="LWPOLYLINE8">
    <polyline class="st0" points="344.51 187.64 343.48 187.02 342.09 186.62 340.52 186.48 338.94 186.62 337.55 187.02 336.52 187.64 335.97 188.39 335.97 189.19 336.52 189.95"/>
  </g>
  <g id="LINE44">
    <line class="st0" x1="336.52" y1="189.95" x2="350.72" y2="202.25"/>
  </g>
  <g id="LWPOLYLINE9">
    <polyline class="st0" points="358.72 199.94 359.27 200.7 359.27 201.5 358.72 202.25 357.69 202.87 356.3 203.27 354.72 203.41 353.14 203.27 351.76 202.87 350.72 202.25"/>
  </g>
  <g id="LINE45">
    <line class="st0" x1="358.72" y1="199.94" x2="344.51" y2="187.64"/>
  </g>
</svg>